<svg width="580" height="580" viewBox="0 0 580 580" fill="none" xmlns="http://www.w3.org/2000/svg">
<path d="M17.5758 0H0V17.5758H17.5758V0Z" fill="black"/>
<path d="M35.1515 0H17.5758V17.5758H35.1515V0Z" fill="black"/>
<path d="M52.7273 0H35.1515V17.5758H52.7273V0Z" fill="black"/>
<path d="M70.303 0H52.7273V17.5758H70.303V0Z" fill="black"/>
<path d="M87.8788 0H70.303V17.5758H87.8788V0Z" fill="black"/>
<path d="M105.455 0H87.8788V17.5758H105.455V0Z" fill="black"/>
<path d="M123.03 0H105.455V17.5758H123.03V0Z" fill="black"/>
<path d="M158.182 0H140.606V17.5758H158.182V0Z" fill="black"/>
<path d="M175.758 0H158.182V17.5758H175.758V0Z" fill="black"/>
<path d="M193.333 0H175.758V17.5758H193.333V0Z" fill="black"/>
<path d="M210.909 0H193.333V17.5758H210.909V0Z" fill="black"/>
<path d="M228.485 0H210.909V17.5758H228.485V0Z" fill="black"/>
<path d="M246.061 0H228.485V17.5758H246.061V0Z" fill="black"/>
<path d="M263.636 0H246.061V17.5758H263.636V0Z" fill="black"/>
<path d="M281.212 0H263.636V17.5758H281.212V0Z" fill="black"/>
<path d="M298.788 0H281.212V17.5758H298.788V0Z" fill="black"/>
<path d="M316.364 0H298.788V17.5758H316.364V0Z" fill="black"/>
<path d="M333.939 0H316.364V17.5758H333.939V0Z" fill="black"/>
<path d="M351.515 0H333.939V17.5758H351.515V0Z" fill="black"/>
<path d="M386.667 0H369.091V17.5758H386.667V0Z" fill="black"/>
<path d="M404.242 0H386.667V17.5758H404.242V0Z" fill="black"/>
<path d="M421.818 0H404.242V17.5758H421.818V0Z" fill="black"/>
<path d="M439.394 0H421.818V17.5758H439.394V0Z" fill="black"/>
<path d="M474.545 0H456.97V17.5758H474.545V0Z" fill="black"/>
<path d="M492.121 0H474.545V17.5758H492.121V0Z" fill="black"/>
<path d="M509.697 0H492.121V17.5758H509.697V0Z" fill="black"/>
<path d="M527.273 0H509.697V17.5758H527.273V0Z" fill="black"/>
<path d="M544.849 0H527.273V17.5758H544.849V0Z" fill="black"/>
<path d="M562.424 0H544.849V17.5758H562.424V0Z" fill="black"/>
<path d="M580 0H562.424V17.5758H580V0Z" fill="black"/>
<path d="M17.5758 17.5758H0V35.1515H17.5758V17.5758Z" fill="black"/>
<path d="M123.03 17.5758H105.455V35.1515H123.03V17.5758Z" fill="black"/>
<path d="M175.758 17.5758H158.182V35.1515H175.758V17.5758Z" fill="black"/>
<path d="M193.333 17.5758H175.758V35.1515H193.333V17.5758Z" fill="black"/>
<path d="M210.909 17.5758H193.333V35.1515H210.909V17.5758Z" fill="black"/>
<path d="M263.636 17.5758H246.061V35.1515H263.636V17.5758Z" fill="black"/>
<path d="M316.364 17.5758H298.788V35.1515H316.364V17.5758Z" fill="black"/>
<path d="M474.545 17.5758H456.97V35.1515H474.545V17.5758Z" fill="black"/>
<path d="M580 17.5758H562.424V35.1515H580V17.5758Z" fill="black"/>
<path d="M17.5758 35.1515H0V52.7273H17.5758V35.1515Z" fill="black"/>
<path d="M52.7273 35.1515H35.1515V52.7273H52.7273V35.1515Z" fill="black"/>
<path d="M70.303 35.1515H52.7273V52.7273H70.303V35.1515Z" fill="black"/>
<path d="M87.8788 35.1515H70.303V52.7273H87.8788V35.1515Z" fill="black"/>
<path d="M123.03 35.1515H105.455V52.7273H123.03V35.1515Z" fill="black"/>
<path d="M158.182 35.1515H140.606V52.7273H158.182V35.1515Z" fill="black"/>
<path d="M175.758 35.1515H158.182V52.7273H175.758V35.1515Z" fill="black"/>
<path d="M228.485 35.1515H210.909V52.7273H228.485V35.1515Z" fill="black"/>
<path d="M246.061 35.1515H228.485V52.7273H246.061V35.1515Z" fill="black"/>
<path d="M298.788 35.1515H281.212V52.7273H298.788V35.1515Z" fill="black"/>
<path d="M316.364 35.1515H298.788V52.7273H316.364V35.1515Z" fill="black"/>
<path d="M369.091 35.1515H351.515V52.7273H369.091V35.1515Z" fill="black"/>
<path d="M404.242 35.1515H386.667V52.7273H404.242V35.1515Z" fill="black"/>
<path d="M439.394 35.1515H421.818V52.7273H439.394V35.1515Z" fill="black"/>
<path d="M474.545 35.1515H456.97V52.7273H474.545V35.1515Z" fill="black"/>
<path d="M509.697 35.1515H492.121V52.7273H509.697V35.1515Z" fill="black"/>
<path d="M527.273 35.1515H509.697V52.7273H527.273V35.1515Z" fill="black"/>
<path d="M544.849 35.1515H527.273V52.7273H544.849V35.1515Z" fill="black"/>
<path d="M580 35.1515H562.424V52.7273H580V35.1515Z" fill="black"/>
<path d="M17.5758 52.7273H0V70.303H17.5758V52.7273Z" fill="black"/>
<path d="M52.7273 52.7273H35.1515V70.303H52.7273V52.7273Z" fill="black"/>
<path d="M70.303 52.7273H52.7273V70.303H70.303V52.7273Z" fill="black"/>
<path d="M87.8788 52.7273H70.303V70.303H87.8788V52.7273Z" fill="black"/>
<path d="M123.03 52.7273H105.455V70.303H123.03V52.7273Z" fill="black"/>
<path d="M158.182 52.7273H140.606V70.303H158.182V52.7273Z" fill="black"/>
<path d="M175.758 52.7273H158.182V70.303H175.758V52.7273Z" fill="black"/>
<path d="M228.485 52.7273H210.909V70.303H228.485V52.7273Z" fill="black"/>
<path d="M263.636 52.7273H246.061V70.303H263.636V52.7273Z" fill="black"/>
<path d="M298.788 52.7273H281.212V70.303H298.788V52.7273Z" fill="black"/>
<path d="M369.091 52.7273H351.515V70.303H369.091V52.7273Z" fill="black"/>
<path d="M404.242 52.7273H386.667V70.303H404.242V52.7273Z" fill="black"/>
<path d="M474.545 52.7273H456.97V70.303H474.545V52.7273Z" fill="black"/>
<path d="M509.697 52.7273H492.121V70.303H509.697V52.7273Z" fill="black"/>
<path d="M527.273 52.7273H509.697V70.303H527.273V52.7273Z" fill="black"/>
<path d="M544.849 52.7273H527.273V70.303H544.849V52.7273Z" fill="black"/>
<path d="M580 52.7273H562.424V70.303H580V52.7273Z" fill="black"/>
<path d="M17.5758 70.303H0V87.8788H17.5758V70.303Z" fill="black"/>
<path d="M52.7273 70.303H35.1515V87.8788H52.7273V70.303Z" fill="black"/>
<path d="M70.303 70.303H52.7273V87.8788H70.303V70.303Z" fill="black"/>
<path d="M87.8788 70.303H70.303V87.8788H87.8788V70.303Z" fill="black"/>
<path d="M123.03 70.303H105.455V87.8788H123.03V70.303Z" fill="black"/>
<path d="M158.182 70.303H140.606V87.8788H158.182V70.303Z" fill="black"/>
<path d="M210.909 70.303H193.333V87.8788H210.909V70.303Z" fill="black"/>
<path d="M228.485 70.303H210.909V87.8788H228.485V70.303Z" fill="black"/>
<path d="M246.061 70.303H228.485V87.8788H246.061V70.303Z" fill="black"/>
<path d="M263.636 70.303H246.061V87.8788H263.636V70.303Z" fill="black"/>
<path d="M281.212 70.303H263.636V87.8788H281.212V70.303Z" fill="black"/>
<path d="M351.515 70.303H333.939V87.8788H351.515V70.303Z" fill="black"/>
<path d="M386.667 70.303H369.091V87.8788H386.667V70.303Z" fill="black"/>
<path d="M404.242 70.303H386.667V87.8788H404.242V70.303Z" fill="black"/>
<path d="M439.394 70.303H421.818V87.8788H439.394V70.303Z" fill="black"/>
<path d="M474.545 70.303H456.97V87.8788H474.545V70.303Z" fill="black"/>
<path d="M509.697 70.303H492.121V87.8788H509.697V70.303Z" fill="black"/>
<path d="M527.273 70.303H509.697V87.8788H527.273V70.303Z" fill="black"/>
<path d="M544.849 70.303H527.273V87.8788H544.849V70.303Z" fill="black"/>
<path d="M580 70.303H562.424V87.8788H580V70.303Z" fill="black"/>
<path d="M17.5758 87.8788H0V105.455H17.5758V87.8788Z" fill="black"/>
<path d="M123.03 87.8788H105.455V105.455H123.03V87.8788Z" fill="black"/>
<path d="M158.182 87.8788H140.606V105.455H158.182V87.8788Z" fill="black"/>
<path d="M175.758 87.8788H158.182V105.455H175.758V87.8788Z" fill="black"/>
<path d="M210.909 87.8788H193.333V105.455H210.909V87.8788Z" fill="black"/>
<path d="M228.485 87.8788H210.909V105.455H228.485V87.8788Z" fill="black"/>
<path d="M263.636 87.8788H246.061V105.455H263.636V87.8788Z" fill="black"/>
<path d="M281.212 87.8788H263.636V105.455H281.212V87.8788Z" fill="black"/>
<path d="M298.788 87.8788H281.212V105.455H298.788V87.8788Z" fill="black"/>
<path d="M421.818 87.8788H404.242V105.455H421.818V87.8788Z" fill="black"/>
<path d="M474.545 87.8788H456.97V105.455H474.545V87.8788Z" fill="black"/>
<path d="M580 87.8788H562.424V105.455H580V87.8788Z" fill="black"/>
<path d="M17.5758 105.455H0V123.03H17.5758V105.455Z" fill="black"/>
<path d="M35.1515 105.455H17.5758V123.03H35.1515V105.455Z" fill="black"/>
<path d="M52.7273 105.455H35.1515V123.03H52.7273V105.455Z" fill="black"/>
<path d="M70.303 105.455H52.7273V123.03H70.303V105.455Z" fill="black"/>
<path d="M87.8788 105.455H70.303V123.03H87.8788V105.455Z" fill="black"/>
<path d="M105.455 105.455H87.8788V123.03H105.455V105.455Z" fill="black"/>
<path d="M123.03 105.455H105.455V123.03H123.03V105.455Z" fill="black"/>
<path d="M158.182 105.455H140.606V123.03H158.182V105.455Z" fill="black"/>
<path d="M193.333 105.455H175.758V123.03H193.333V105.455Z" fill="black"/>
<path d="M228.485 105.455H210.909V123.03H228.485V105.455Z" fill="black"/>
<path d="M263.636 105.455H246.061V123.03H263.636V105.455Z" fill="black"/>
<path d="M298.788 105.455H281.212V123.03H298.788V105.455Z" fill="black"/>
<path d="M333.939 105.455H316.364V123.03H333.939V105.455Z" fill="black"/>
<path d="M369.091 105.455H351.515V123.03H369.091V105.455Z" fill="black"/>
<path d="M404.242 105.455H386.667V123.03H404.242V105.455Z" fill="black"/>
<path d="M439.394 105.455H421.818V123.03H439.394V105.455Z" fill="black"/>
<path d="M474.545 105.455H456.97V123.03H474.545V105.455Z" fill="black"/>
<path d="M492.121 105.455H474.545V123.03H492.121V105.455Z" fill="black"/>
<path d="M509.697 105.455H492.121V123.03H509.697V105.455Z" fill="black"/>
<path d="M527.273 105.455H509.697V123.03H527.273V105.455Z" fill="black"/>
<path d="M544.849 105.455H527.273V123.03H544.849V105.455Z" fill="black"/>
<path d="M562.424 105.455H544.849V123.03H562.424V105.455Z" fill="black"/>
<path d="M580 105.455H562.424V123.03H580V105.455Z" fill="black"/>
<path d="M228.485 123.03H210.909V140.606H228.485V123.03Z" fill="black"/>
<path d="M246.061 123.03H228.485V140.606H246.061V123.03Z" fill="black"/>
<path d="M263.636 123.03H246.061V140.606H263.636V123.03Z" fill="black"/>
<path d="M298.788 123.03H281.212V140.606H298.788V123.03Z" fill="black"/>
<path d="M316.364 123.03H298.788V140.606H316.364V123.03Z" fill="black"/>
<path d="M333.939 123.03H316.364V140.606H333.939V123.03Z" fill="black"/>
<path d="M351.515 123.03H333.939V140.606H351.515V123.03Z" fill="black"/>
<path d="M52.7273 140.606H35.1515V158.182H52.7273V140.606Z" fill="black"/>
<path d="M70.303 140.606H52.7273V158.182H70.303V140.606Z" fill="black"/>
<path d="M87.8788 140.606H70.303V158.182H87.8788V140.606Z" fill="black"/>
<path d="M105.455 140.606H87.8788V158.182H105.455V140.606Z" fill="black"/>
<path d="M123.03 140.606H105.455V158.182H123.03V140.606Z" fill="black"/>
<path d="M140.606 140.606H123.03V158.182H140.606V140.606Z" fill="black"/>
<path d="M193.333 140.606H175.758V158.182H193.333V140.606Z" fill="black"/>
<path d="M210.909 140.606H193.333V158.182H210.909V140.606Z" fill="black"/>
<path d="M246.061 140.606H228.485V158.182H246.061V140.606Z" fill="black"/>
<path d="M281.212 140.606H263.636V158.182H281.212V140.606Z" fill="black"/>
<path d="M298.788 140.606H281.212V158.182H298.788V140.606Z" fill="black"/>
<path d="M351.515 140.606H333.939L333.939 158.182H351.515V140.606Z" fill="black"/>
<path d="M369.091 140.606H351.515V158.182H369.091V140.606Z" fill="black"/>
<path d="M386.667 140.606H369.091V158.182H386.667V140.606Z" fill="black"/>
<path d="M439.394 140.606H421.818V158.182H439.394V140.606Z" fill="black"/>
<path d="M456.97 140.606H439.394V158.182H456.97V140.606Z" fill="black"/>
<path d="M492.121 140.606H474.545V158.182H492.121V140.606Z" fill="black"/>
<path d="M509.697 140.606H492.121V158.182H509.697V140.606Z" fill="black"/>
<path d="M527.273 140.606H509.697V158.182H527.273V140.606Z" fill="black"/>
<path d="M544.849 140.606H527.273V158.182H544.849V140.606Z" fill="black"/>
<path d="M580 140.606H562.424V158.182H580V140.606Z" fill="black"/>
<path d="M17.5758 158.182H0V175.758H17.5758V158.182Z" fill="black"/>
<path d="M35.1515 158.182H17.5758V175.758H35.1515V158.182Z" fill="black"/>
<path d="M52.7273 158.182H35.1515V175.758H52.7273V158.182Z" fill="black"/>
<path d="M70.303 158.182H52.7273V175.758H70.303V158.182Z" fill="black"/>
<path d="M105.455 158.182H87.8788V175.758H105.455V158.182Z" fill="black"/>
<path d="M158.182 158.182H140.606V175.758H158.182V158.182Z" fill="black"/>
<path d="M210.909 158.182H193.333V175.758H210.909V158.182Z" fill="black"/>
<path d="M228.485 158.182H210.909V175.758H228.485V158.182Z" fill="black"/>
<path d="M281.212 158.182H263.636V175.758H281.212V158.182Z" fill="black"/>
<path d="M386.667 158.182H369.091V175.758H386.667V158.182Z" fill="black"/>
<path d="M421.818 158.182H404.242V175.758H421.818V158.182Z" fill="black"/>
<path d="M439.394 158.182H421.818V175.758H439.394V158.182Z" fill="black"/>
<path d="M456.97 158.182H439.394V175.758H456.97V158.182Z" fill="black"/>
<path d="M474.545 158.182H456.97V175.758H474.545V158.182Z" fill="black"/>
<path d="M544.849 158.182H527.273V175.758H544.849V158.182Z" fill="black"/>
<path d="M52.7273 175.758H35.1515V193.333H52.7273V175.758Z" fill="black"/>
<path d="M70.303 175.758H52.7273V193.333H70.303V175.758Z" fill="black"/>
<path d="M87.8788 175.758H70.303V193.333H87.8788V175.758Z" fill="black"/>
<path d="M105.455 175.758H87.8788V193.333H105.455V175.758Z" fill="black"/>
<path d="M123.03 175.758H105.455V193.333H123.03V175.758Z" fill="black"/>
<path d="M193.333 175.758H175.758V193.333H193.333V175.758Z" fill="black"/>
<path d="M246.061 175.758H228.485V193.333H246.061V175.758Z" fill="black"/>
<path d="M333.939 175.758H316.364V193.333H333.939V175.758Z" fill="black"/>
<path d="M351.515 175.758H333.939V193.333H351.515V175.758Z" fill="black"/>
<path d="M386.667 175.758H369.091V193.333H386.667V175.758Z" fill="black"/>
<path d="M404.242 175.758H386.667V193.333H404.242V175.758Z" fill="black"/>
<path d="M421.818 175.758H404.242V193.333H421.818V175.758Z" fill="black"/>
<path d="M474.545 175.758H456.97V193.333H474.545V175.758Z" fill="black"/>
<path d="M509.697 175.758H492.121V193.333H509.697V175.758Z" fill="black"/>
<path d="M544.849 175.758H527.273V193.333H544.849V175.758Z" fill="black"/>
<path d="M562.424 175.758H544.849V193.333H562.424V175.758Z" fill="black"/>
<path d="M580 175.758H562.424V193.333H580V175.758Z" fill="black"/>
<path d="M17.5758 193.333H0V210.909H17.5758V193.333Z" fill="black"/>
<path d="M70.303 193.333H52.7273V210.909H70.303V193.333Z" fill="black"/>
<path d="M87.8788 193.333H70.303V210.909H87.8788V193.333Z" fill="black"/>
<path d="M140.606 193.333H123.03V210.909H140.606V193.333Z" fill="black"/>
<path d="M210.909 193.333H193.333V210.909H210.909V193.333Z" fill="black"/>
<path d="M228.485 193.333H210.909V210.909H228.485V193.333Z" fill="black"/>
<path d="M281.212 193.333H263.636V210.909H281.212V193.333Z" fill="black"/>
<path d="M316.364 193.333H298.788V210.909H316.364V193.333Z" fill="black"/>
<path d="M333.939 193.333H316.364V210.909H333.939V193.333Z" fill="black"/>
<path d="M404.242 193.333H386.667V210.909H404.242V193.333Z" fill="black"/>
<path d="M421.818 193.333H404.242V210.909H421.818V193.333Z" fill="black"/>
<path d="M439.394 193.333H421.818V210.909H439.394V193.333Z" fill="black"/>
<path d="M456.97 193.333H439.394V210.909H456.97V193.333Z" fill="black"/>
<path d="M474.545 193.333H456.97V210.909H474.545V193.333Z" fill="black"/>
<path d="M509.697 193.333H492.121V210.909H509.697V193.333Z" fill="black"/>
<path d="M527.273 193.333H509.697V210.909H527.273V193.333Z" fill="black"/>
<path d="M544.849 193.333H527.273V210.909H544.849V193.333Z" fill="black"/>
<path d="M562.424 193.333H544.849V210.909H562.424V193.333Z" fill="black"/>
<path d="M17.5758 210.909H0V228.485H17.5758V210.909Z" fill="black"/>
<path d="M35.1515 210.909H17.5758V228.485H35.1515V210.909Z" fill="black"/>
<path d="M52.7273 210.909H35.1515V228.485H52.7273V210.909Z" fill="black"/>
<path d="M70.303 210.909H52.7273V228.485H70.303V210.909Z" fill="black"/>
<path d="M123.03 210.909H105.455V228.485H123.03V210.909Z" fill="black"/>
<path d="M158.182 210.909H140.606V228.485H158.182V210.909Z" fill="black"/>
<path d="M175.758 210.909H158.182V228.485H175.758V210.909Z" fill="black"/>
<path d="M228.485 210.909H210.909V228.485H228.485V210.909Z" fill="black"/>
<path d="M281.212 210.909H263.636V228.485H281.212V210.909Z" fill="black"/>
<path d="M333.939 210.909H316.364V228.485H333.939V210.909Z" fill="black"/>
<path d="M369.091 210.909H351.515V228.485H369.091V210.909Z" fill="black"/>
<path d="M404.242 210.909H386.667V228.485H404.242V210.909Z" fill="black"/>
<path d="M509.697 210.909H492.121V228.485H509.697V210.909Z" fill="black"/>
<path d="M580 210.909H562.424V228.485H580V210.909Z" fill="black"/>
<path d="M17.5758 228.485H0V246.061H17.5758V228.485Z" fill="black"/>
<path d="M35.1515 228.485H17.5758V246.061H35.1515V228.485Z" fill="black"/>
<path d="M52.7273 228.485H35.1515V246.061H52.7273V228.485Z" fill="black"/>
<path d="M158.182 228.485H140.606V246.061H158.182V228.485Z" fill="black"/>
<path d="M246.061 228.485H228.485V246.061H246.061V228.485Z" fill="black"/>
<path d="M298.788 228.485H281.212V246.061H298.788V228.485Z" fill="black"/>
<path d="M316.364 228.485H298.788V246.061H316.364V228.485Z" fill="black"/>
<path d="M333.939 228.485H316.364V246.061H333.939V228.485Z" fill="black"/>
<path d="M386.667 228.485H369.091V246.061H386.667V228.485Z" fill="black"/>
<path d="M421.818 228.485H404.242V246.061H421.818V228.485Z" fill="black"/>
<path d="M439.394 228.485H421.818V246.061H439.394V228.485Z" fill="black"/>
<path d="M509.697 228.485H492.121V246.061H509.697V228.485Z" fill="black"/>
<path d="M527.273 228.485H509.697V246.061H527.273V228.485Z" fill="black"/>
<path d="M544.849 228.485H527.273V246.061H544.849V228.485Z" fill="black"/>
<path d="M562.424 228.485H544.849V246.061H562.424V228.485Z" fill="black"/>
<path d="M580 228.485H562.424V246.061H580V228.485Z" fill="black"/>
<path d="M17.5758 246.061H0V263.636H17.5758V246.061Z" fill="black"/>
<path d="M35.1515 246.061H17.5758V263.636H35.1515V246.061Z" fill="black"/>
<path d="M70.303 246.061H52.7273V263.636H70.303V246.061Z" fill="black"/>
<path d="M123.03 246.061H105.455V263.636H123.03V246.061Z" fill="black"/>
<path d="M140.606 246.061H123.03V263.636H140.606V246.061Z" fill="black"/>
<path d="M175.758 246.061H158.182V263.636H175.758V246.061Z" fill="black"/>
<path d="M210.909 246.061H193.333V263.636H210.909V246.061Z" fill="black"/>
<path d="M246.061 246.061H228.485V263.636H246.061V246.061Z" fill="black"/>
<path d="M316.364 246.061H298.788V263.636H316.364V246.061Z" fill="black"/>
<path d="M333.939 246.061H316.364V263.636H333.939V246.061Z" fill="black"/>
<path d="M351.515 246.061H333.939V263.636H351.515V246.061Z" fill="black"/>
<path d="M404.242 246.061H386.667V263.636H404.242V246.061Z" fill="black"/>
<path d="M439.394 246.061H421.818V263.636H439.394V246.061Z" fill="black"/>
<path d="M456.97 246.061H439.394V263.636H456.97V246.061Z" fill="black"/>
<path d="M492.121 246.061H474.545V263.636H492.121V246.061Z" fill="black"/>
<path d="M509.697 246.061H492.121V263.636H509.697V246.061Z" fill="black"/>
<path d="M35.1515 263.636H17.5758V281.212H35.1515V263.636Z" fill="black"/>
<path d="M87.8788 263.636H70.303V281.212H87.8788V263.636Z" fill="black"/>
<path d="M105.455 263.636H87.8788V281.212H105.455V263.636Z" fill="black"/>
<path d="M140.606 263.636H123.03V281.212H140.606V263.636Z" fill="black"/>
<path d="M158.182 263.636H140.606V281.212H158.182V263.636Z" fill="black"/>
<path d="M193.333 263.636H175.758V281.212H193.333V263.636Z" fill="black"/>
<path d="M228.485 263.636H210.909V281.212H228.485V263.636Z" fill="black"/>
<path d="M246.061 263.636H228.485V281.212H246.061V263.636Z" fill="black"/>
<path d="M333.939 263.636H316.364V281.212H333.939V263.636Z" fill="black"/>
<path d="M351.515 263.636H333.939V281.212H351.515V263.636Z" fill="black"/>
<path d="M369.091 263.636H351.515V281.212H369.091V263.636Z" fill="black"/>
<path d="M386.667 263.636H369.091V281.212H386.667V263.636Z" fill="black"/>
<path d="M404.242 263.636H386.667V281.212H404.242V263.636Z" fill="black"/>
<path d="M421.818 263.636H404.242V281.212H421.818V263.636Z" fill="black"/>
<path d="M439.394 263.636H421.818V281.212H439.394V263.636Z" fill="black"/>
<path d="M474.545 263.636H456.97V281.212H474.545V263.636Z" fill="black"/>
<path d="M527.273 263.636H509.697V281.212H527.273V263.636Z" fill="black"/>
<path d="M35.1515 281.212H17.5758V298.788H35.1515V281.212Z" fill="black"/>
<path d="M52.7273 281.212H35.1515V298.788H52.7273V281.212Z" fill="black"/>
<path d="M70.303 281.212H52.7273V298.788H70.303V281.212Z" fill="black"/>
<path d="M105.455 281.212H87.8788V298.788H105.455V281.212Z" fill="black"/>
<path d="M123.03 281.212H105.455V298.788H123.03V281.212Z" fill="black"/>
<path d="M246.061 281.212H228.485V298.788H246.061V281.212Z" fill="black"/>
<path d="M281.212 281.212H263.636V298.788H281.212V281.212Z" fill="black"/>
<path d="M298.788 281.212H281.212V298.788H298.788V281.212Z" fill="black"/>
<path d="M316.364 281.212H298.788V298.788H316.364V281.212Z" fill="black"/>
<path d="M333.939 281.212H316.364V298.788H333.939V281.212Z" fill="black"/>
<path d="M369.091 281.212H351.515V298.788H369.091V281.212Z" fill="black"/>
<path d="M404.242 281.212H386.667V298.788H404.242V281.212Z" fill="black"/>
<path d="M456.97 281.212H439.394V298.788H456.97V281.212Z" fill="black"/>
<path d="M474.545 281.212H456.97V298.788H474.545V281.212Z" fill="black"/>
<path d="M492.121 281.212H474.545V298.788H492.121V281.212Z" fill="black"/>
<path d="M527.273 281.212H509.697V298.788H527.273V281.212Z" fill="black"/>
<path d="M562.424 281.212H544.849V298.788H562.424V281.212Z" fill="black"/>
<path d="M17.5758 298.788H0V316.364H17.5758V298.788Z" fill="black"/>
<path d="M35.1515 298.788H17.5758V316.364H35.1515V298.788Z" fill="black"/>
<path d="M52.7273 298.788H35.1515V316.364H52.7273V298.788Z" fill="black"/>
<path d="M87.8788 298.788H70.303V316.364H87.8788V298.788Z" fill="black"/>
<path d="M105.455 298.788H87.8788V316.364H105.455V298.788Z" fill="black"/>
<path d="M158.182 298.788H140.606V316.364H158.182V298.788Z" fill="black"/>
<path d="M263.636 298.788H246.061V316.364H263.636V298.788Z" fill="black"/>
<path d="M298.788 298.788H281.212V316.364H298.788V298.788Z" fill="black"/>
<path d="M316.364 298.788H298.788V316.364H316.364V298.788Z" fill="black"/>
<path d="M333.939 298.788H316.364V316.364H333.939V298.788Z" fill="black"/>
<path d="M351.515 298.788H333.939V316.364H351.515V298.788Z" fill="black"/>
<path d="M386.667 298.788H369.091V316.364H386.667V298.788Z" fill="black"/>
<path d="M404.242 298.788H386.667V316.364H404.242V298.788Z" fill="black"/>
<path d="M439.394 298.788H421.818V316.364H439.394V298.788Z" fill="black"/>
<path d="M527.273 298.788H509.697V316.364H527.273V298.788Z" fill="black"/>
<path d="M580 298.788H562.424V316.364H580V298.788Z" fill="black"/>
<path d="M17.5758 316.364H0V333.939H17.5758V316.364Z" fill="black"/>
<path d="M52.7273 316.364H35.1515V333.939H52.7273V316.364Z" fill="black"/>
<path d="M87.8788 316.364H70.303V333.939H87.8788V316.364Z" fill="black"/>
<path d="M123.03 316.364H105.455V333.939H123.03V316.364Z" fill="black"/>
<path d="M140.606 316.364H123.03V333.939H140.606V316.364Z" fill="black"/>
<path d="M175.758 316.364H158.182V333.939H175.758V316.364Z" fill="black"/>
<path d="M193.333 316.364H175.758V333.939H193.333V316.364Z" fill="black"/>
<path d="M228.485 316.364H210.909V333.939H228.485V316.364Z" fill="black"/>
<path d="M263.636 316.364H246.061V333.939H263.636V316.364Z" fill="black"/>
<path d="M316.364 316.364H298.788V333.939H316.364V316.364Z" fill="black"/>
<path d="M351.515 316.364H333.939L333.939 333.939H351.515V316.364Z" fill="black"/>
<path d="M386.667 316.364H369.091V333.939H386.667V316.364Z" fill="black"/>
<path d="M456.97 316.364H439.394V333.939H456.97V316.364Z" fill="black"/>
<path d="M474.545 316.364H456.97V333.939H474.545V316.364Z" fill="black"/>
<path d="M509.697 316.364H492.121V333.939H509.697V316.364Z" fill="black"/>
<path d="M580 316.364H562.424V333.939H580V316.364Z" fill="black"/>
<path d="M17.5758 333.939H0V351.515H17.5758V333.939Z" fill="black"/>
<path d="M70.303 333.939H52.7273V351.515H70.303V333.939Z" fill="black"/>
<path d="M175.758 333.939H158.182V351.515H175.758V333.939Z" fill="black"/>
<path d="M263.636 333.939H246.061V351.515H263.636V333.939Z" fill="black"/>
<path d="M281.212 333.939L263.636 333.939V351.515H281.212V333.939Z" fill="black"/>
<path d="M298.788 333.939L281.212 333.939V351.515H298.788V333.939Z" fill="black"/>
<path d="M316.364 333.939H298.788V351.515H316.364V333.939Z" fill="black"/>
<path d="M351.515 333.939H333.939V351.515H351.515V333.939Z" fill="black"/>
<path d="M456.97 333.939H439.394V351.515H456.97V333.939Z" fill="black"/>
<path d="M492.121 333.939H474.545V351.515H492.121V333.939Z" fill="black"/>
<path d="M544.849 333.939H527.273V351.515H544.849V333.939Z" fill="black"/>
<path d="M562.424 333.939L544.849 333.939V351.515H562.424V333.939Z" fill="black"/>
<path d="M580 333.939H562.424V351.515H580V333.939Z" fill="black"/>
<path d="M35.1515 351.515H17.5758V369.091H35.1515V351.515Z" fill="black"/>
<path d="M52.7273 351.515H35.1515V369.091H52.7273V351.515Z" fill="black"/>
<path d="M70.303 351.515H52.7273V369.091H70.303V351.515Z" fill="black"/>
<path d="M105.455 351.515H87.8788V369.091H105.455V351.515Z" fill="black"/>
<path d="M123.03 351.515H105.455V369.091H123.03V351.515Z" fill="black"/>
<path d="M175.758 351.515H158.182V369.091H175.758V351.515Z" fill="black"/>
<path d="M193.333 351.515H175.758V369.091H193.333V351.515Z" fill="black"/>
<path d="M246.061 351.515H228.485V369.091H246.061V351.515Z" fill="black"/>
<path d="M281.212 351.515H263.636V369.091H281.212V351.515Z" fill="black"/>
<path d="M316.364 351.515H298.788V369.091H316.364V351.515Z" fill="black"/>
<path d="M369.091 351.515H351.515V369.091H369.091V351.515Z" fill="black"/>
<path d="M404.242 351.515H386.667V369.091H404.242V351.515Z" fill="black"/>
<path d="M439.394 351.515H421.818V369.091H439.394V351.515Z" fill="black"/>
<path d="M456.97 351.515H439.394V369.091H456.97V351.515Z" fill="black"/>
<path d="M474.545 351.515H456.97V369.091H474.545V351.515Z" fill="black"/>
<path d="M492.121 351.515H474.545V369.091H492.121V351.515Z" fill="black"/>
<path d="M527.273 351.515H509.697V369.091H527.273V351.515Z" fill="black"/>
<path d="M562.424 351.515H544.849V369.091H562.424V351.515Z" fill="black"/>
<path d="M17.5758 369.091H0V386.667H17.5758V369.091Z" fill="black"/>
<path d="M35.1515 369.091H17.5758V386.667H35.1515V369.091Z" fill="black"/>
<path d="M52.7273 369.091H35.1515V386.667H52.7273V369.091Z" fill="black"/>
<path d="M140.606 369.091H123.03V386.667H140.606V369.091Z" fill="black"/>
<path d="M210.909 369.091H193.333V386.667H210.909V369.091Z" fill="black"/>
<path d="M228.485 369.091H210.909V386.667H228.485V369.091Z" fill="black"/>
<path d="M246.061 369.091H228.485V386.667H246.061V369.091Z" fill="black"/>
<path d="M281.212 369.091H263.636V386.667H281.212V369.091Z" fill="black"/>
<path d="M369.091 369.091H351.515V386.667H369.091V369.091Z" fill="black"/>
<path d="M386.667 369.091H369.091V386.667H386.667V369.091Z" fill="black"/>
<path d="M404.242 369.091H386.667V386.667H404.242V369.091Z" fill="black"/>
<path d="M421.818 369.091H404.242V386.667H421.818V369.091Z" fill="black"/>
<path d="M456.97 369.091H439.394V386.667H456.97V369.091Z" fill="black"/>
<path d="M474.545 369.091H456.97V386.667H474.545V369.091Z" fill="black"/>
<path d="M492.121 369.091H474.545V386.667H492.121V369.091Z" fill="black"/>
<path d="M509.697 369.091H492.121V386.667H509.697V369.091Z" fill="black"/>
<path d="M527.273 369.091H509.697V386.667H527.273V369.091Z" fill="black"/>
<path d="M544.849 369.091H527.273V386.667H544.849V369.091Z" fill="black"/>
<path d="M562.424 369.091H544.849V386.667H562.424V369.091Z" fill="black"/>
<path d="M105.455 386.667H87.8788V404.242H105.455V386.667Z" fill="black"/>
<path d="M123.03 386.667H105.455V404.242H123.03V386.667Z" fill="black"/>
<path d="M158.182 386.667H140.606V404.242H158.182V386.667Z" fill="black"/>
<path d="M175.758 386.667H158.182V404.242H175.758V386.667Z" fill="black"/>
<path d="M193.333 386.667H175.758V404.242H193.333V386.667Z" fill="black"/>
<path d="M210.909 386.667H193.333V404.242H210.909V386.667Z" fill="black"/>
<path d="M281.212 386.667H263.636V404.242H281.212V386.667Z" fill="black"/>
<path d="M298.788 386.667H281.212V404.242H298.788V386.667Z" fill="black"/>
<path d="M316.364 386.667H298.788V404.242H316.364V386.667Z" fill="black"/>
<path d="M333.939 386.667H316.364V404.242H333.939V386.667Z" fill="black"/>
<path d="M369.091 386.667H351.515V404.242H369.091V386.667Z" fill="black"/>
<path d="M404.242 386.667H386.667V404.242H404.242V386.667Z" fill="black"/>
<path d="M439.394 386.667H421.818V404.242H439.394V386.667Z" fill="black"/>
<path d="M492.121 386.667H474.545V404.242H492.121V386.667Z" fill="black"/>
<path d="M527.273 386.667H509.697V404.242H527.273V386.667Z" fill="black"/>
<path d="M562.424 386.667H544.849V404.242H562.424V386.667Z" fill="black"/>
<path d="M580 386.667H562.424V404.242H580V386.667Z" fill="black"/>
<path d="M17.5758 404.242H0V421.818H17.5758V404.242Z" fill="black"/>
<path d="M70.303 404.242H52.7273V421.818H70.303V404.242Z" fill="black"/>
<path d="M87.8788 404.242H70.303V421.818H87.8788V404.242Z" fill="black"/>
<path d="M140.606 404.242H123.03V421.818H140.606V404.242Z" fill="black"/>
<path d="M175.758 404.242H158.182V421.818H175.758V404.242Z" fill="black"/>
<path d="M210.909 404.242H193.333V421.818H210.909V404.242Z" fill="black"/>
<path d="M228.485 404.242H210.909V421.818H228.485V404.242Z" fill="black"/>
<path d="M246.061 404.242H228.485V421.818H246.061V404.242Z" fill="black"/>
<path d="M281.212 404.242H263.636V421.818H281.212V404.242Z" fill="black"/>
<path d="M316.364 404.242H298.788V421.818H316.364V404.242Z" fill="black"/>
<path d="M351.515 404.242H333.939L333.939 421.818H351.515V404.242Z" fill="black"/>
<path d="M386.667 404.242H369.091V421.818H386.667V404.242Z" fill="black"/>
<path d="M421.818 404.242H404.242V421.818H421.818V404.242Z" fill="black"/>
<path d="M456.97 404.242H439.394V421.818H456.97V404.242Z" fill="black"/>
<path d="M474.545 404.242H456.97V421.818H474.545V404.242Z" fill="black"/>
<path d="M492.121 404.242H474.545V421.818H492.121V404.242Z" fill="black"/>
<path d="M527.273 404.242H509.697V421.818H527.273V404.242Z" fill="black"/>
<path d="M544.849 404.242H527.273V421.818H544.849V404.242Z" fill="black"/>
<path d="M562.424 404.242H544.849V421.818H562.424V404.242Z" fill="black"/>
<path d="M52.7273 421.818H35.1515V439.394H52.7273V421.818Z" fill="black"/>
<path d="M87.8788 421.818H70.303V439.394H87.8788V421.818Z" fill="black"/>
<path d="M123.03 421.818H105.455V439.394H123.03V421.818Z" fill="black"/>
<path d="M140.606 421.818H123.03V439.394H140.606V421.818Z" fill="black"/>
<path d="M158.182 421.818H140.606V439.394H158.182V421.818Z" fill="black"/>
<path d="M193.333 421.818H175.758V439.394H193.333V421.818Z" fill="black"/>
<path d="M246.061 421.818H228.485V439.394H246.061V421.818Z" fill="black"/>
<path d="M281.212 421.818H263.636V439.394H281.212V421.818Z" fill="black"/>
<path d="M298.788 421.818H281.212V439.394H298.788V421.818Z" fill="black"/>
<path d="M316.364 421.818H298.788V439.394H316.364V421.818Z" fill="black"/>
<path d="M386.667 421.818H369.091V439.394H386.667V421.818Z" fill="black"/>
<path d="M421.818 421.818H404.242V439.394H421.818V421.818Z" fill="black"/>
<path d="M439.394 421.818H421.818V439.394H439.394V421.818Z" fill="black"/>
<path d="M456.97 421.818H439.394V439.394H456.97V421.818Z" fill="black"/>
<path d="M474.545 421.818H456.97V439.394H474.545V421.818Z" fill="black"/>
<path d="M492.121 421.818H474.545V439.394H492.121V421.818Z" fill="black"/>
<path d="M509.697 421.818H492.121V439.394H509.697V421.818Z" fill="black"/>
<path d="M544.849 421.818H527.273V439.394H544.849V421.818Z" fill="black"/>
<path d="M580 421.818H562.424V439.394H580V421.818Z" fill="black"/>
<path d="M193.333 439.394H175.758V456.97H193.333V439.394Z" fill="black"/>
<path d="M210.909 439.394H193.333V456.97H210.909V439.394Z" fill="black"/>
<path d="M246.061 439.394H228.485V456.97H246.061V439.394Z" fill="black"/>
<path d="M263.636 439.394H246.061V456.97H263.636V439.394Z" fill="black"/>
<path d="M281.212 439.394H263.636V456.97H281.212V439.394Z" fill="black"/>
<path d="M298.788 439.394H281.212V456.97H298.788V439.394Z" fill="black"/>
<path d="M316.364 439.394H298.788V456.97H316.364V439.394Z" fill="black"/>
<path d="M351.515 439.394H333.939V456.97H351.515V439.394Z" fill="black"/>
<path d="M386.667 439.394H369.091V456.97H386.667V439.394Z" fill="black"/>
<path d="M404.242 439.394H386.667V456.97H404.242V439.394Z" fill="black"/>
<path d="M421.818 439.394H404.242V456.97H421.818V439.394Z" fill="black"/>
<path d="M439.394 439.394H421.818V456.97H439.394V439.394Z" fill="black"/>
<path d="M509.697 439.394H492.121V456.97H509.697V439.394Z" fill="black"/>
<path d="M527.273 439.394H509.697V456.97H527.273V439.394Z" fill="black"/>
<path d="M544.849 439.394H527.273V456.97H544.849V439.394Z" fill="black"/>
<path d="M580 439.394H562.424V456.97H580V439.394Z" fill="black"/>
<path d="M17.5758 456.97H0V474.545H17.5758V456.97Z" fill="black"/>
<path d="M35.1515 456.97H17.5758V474.545H35.1515V456.97Z" fill="black"/>
<path d="M52.7273 456.97H35.1515V474.545H52.7273V456.97Z" fill="black"/>
<path d="M70.303 456.97H52.7273V474.545H70.303V456.97Z" fill="black"/>
<path d="M87.8788 456.97H70.303V474.545H87.8788V456.97Z" fill="black"/>
<path d="M105.455 456.97H87.8788V474.545H105.455V456.97Z" fill="black"/>
<path d="M123.03 456.97H105.455V474.545H123.03V456.97Z" fill="black"/>
<path d="M158.182 456.97H140.606V474.545H158.182V456.97Z" fill="black"/>
<path d="M175.758 456.97H158.182V474.545H175.758V456.97Z" fill="black"/>
<path d="M246.061 456.97H228.485V474.545H246.061V456.97Z" fill="black"/>
<path d="M263.636 456.97H246.061V474.545H263.636V456.97Z" fill="black"/>
<path d="M281.212 456.97H263.636V474.545H281.212V456.97Z" fill="black"/>
<path d="M316.364 456.97H298.788V474.545H316.364V456.97Z" fill="black"/>
<path d="M333.939 456.97H316.364V474.545H333.939L333.939 456.97Z" fill="black"/>
<path d="M386.667 456.97H369.091V474.545H386.667V456.97Z" fill="black"/>
<path d="M421.818 456.97H404.242V474.545H421.818V456.97Z" fill="black"/>
<path d="M439.394 456.97H421.818V474.545H439.394V456.97Z" fill="black"/>
<path d="M474.545 456.97H456.97V474.545H474.545V456.97Z" fill="black"/>
<path d="M509.697 456.97H492.121V474.545H509.697V456.97Z" fill="black"/>
<path d="M544.849 456.97H527.273V474.545H544.849V456.97Z" fill="black"/>
<path d="M17.5758 474.545H0V492.121H17.5758V474.545Z" fill="black"/>
<path d="M123.03 474.545H105.455V492.121H123.03V474.545Z" fill="black"/>
<path d="M158.182 474.545H140.606V492.121H158.182V474.545Z" fill="black"/>
<path d="M175.758 474.545H158.182V492.121H175.758V474.545Z" fill="black"/>
<path d="M246.061 474.545H228.485V492.121H246.061V474.545Z" fill="black"/>
<path d="M263.636 474.545H246.061V492.121H263.636V474.545Z" fill="black"/>
<path d="M281.212 474.545H263.636V492.121H281.212V474.545Z" fill="black"/>
<path d="M298.788 474.545H281.212V492.121H298.788V474.545Z" fill="black"/>
<path d="M316.364 474.545H298.788V492.121H316.364V474.545Z" fill="black"/>
<path d="M333.939 474.545H316.364V492.121H333.939V474.545Z" fill="black"/>
<path d="M351.515 474.545H333.939V492.121H351.515V474.545Z" fill="black"/>
<path d="M386.667 474.545H369.091V492.121H386.667V474.545Z" fill="black"/>
<path d="M439.394 474.545H421.818V492.121H439.394V474.545Z" fill="black"/>
<path d="M509.697 474.545H492.121V492.121H509.697V474.545Z" fill="black"/>
<path d="M544.849 474.545H527.273V492.121H544.849V474.545Z" fill="black"/>
<path d="M580 474.545H562.424V492.121H580V474.545Z" fill="black"/>
<path d="M17.5758 492.121H0V509.697H17.5758V492.121Z" fill="black"/>
<path d="M52.7273 492.121H35.1515V509.697H52.7273V492.121Z" fill="black"/>
<path d="M70.303 492.121H52.7273V509.697H70.303V492.121Z" fill="black"/>
<path d="M87.8788 492.121H70.303V509.697H87.8788V492.121Z" fill="black"/>
<path d="M123.03 492.121H105.455V509.697H123.03V492.121Z" fill="black"/>
<path d="M158.182 492.121H140.606V509.697H158.182V492.121Z" fill="black"/>
<path d="M193.333 492.121H175.758V509.697H193.333V492.121Z" fill="black"/>
<path d="M210.909 492.121H193.333V509.697H210.909V492.121Z" fill="black"/>
<path d="M228.485 492.121H210.909V509.697H228.485V492.121Z" fill="black"/>
<path d="M281.212 492.121H263.636V509.697H281.212V492.121Z" fill="black"/>
<path d="M298.788 492.121H281.212V509.697H298.788V492.121Z" fill="black"/>
<path d="M333.939 492.121H316.364V509.697H333.939V492.121Z" fill="black"/>
<path d="M351.515 492.121H333.939V509.697H351.515V492.121Z" fill="black"/>
<path d="M369.091 492.121H351.515V509.697H369.091V492.121Z" fill="black"/>
<path d="M439.394 492.121H421.818V509.697H439.394V492.121Z" fill="black"/>
<path d="M456.97 492.121H439.394V509.697H456.97V492.121Z" fill="black"/>
<path d="M474.545 492.121H456.97V509.697H474.545V492.121Z" fill="black"/>
<path d="M492.121 492.121H474.545V509.697H492.121V492.121Z" fill="black"/>
<path d="M509.697 492.121H492.121V509.697H509.697V492.121Z" fill="black"/>
<path d="M527.273 492.121H509.697V509.697H527.273V492.121Z" fill="black"/>
<path d="M562.424 492.121H544.849V509.697H562.424V492.121Z" fill="black"/>
<path d="M17.5758 509.697H0V527.273H17.5758V509.697Z" fill="black"/>
<path d="M52.7273 509.697H35.1515V527.273H52.7273V509.697Z" fill="black"/>
<path d="M70.303 509.697H52.7273V527.273H70.303V509.697Z" fill="black"/>
<path d="M87.8788 509.697H70.303V527.273H87.8788V509.697Z" fill="black"/>
<path d="M123.03 509.697H105.455V527.273H123.03V509.697Z" fill="black"/>
<path d="M158.182 509.697H140.606V527.273H158.182V509.697Z" fill="black"/>
<path d="M175.758 509.697H158.182V527.273H175.758V509.697Z" fill="black"/>
<path d="M210.909 509.697H193.333V527.273H210.909V509.697Z" fill="black"/>
<path d="M228.485 509.697H210.909V527.273H228.485V509.697Z" fill="black"/>
<path d="M246.061 509.697H228.485V527.273H246.061V509.697Z" fill="black"/>
<path d="M263.636 509.697H246.061V527.273H263.636V509.697Z" fill="black"/>
<path d="M298.788 509.697H281.212V527.273H298.788V509.697Z" fill="black"/>
<path d="M316.364 509.697H298.788V527.273H316.364V509.697Z" fill="black"/>
<path d="M351.515 509.697H333.939L333.939 527.273H351.515V509.697Z" fill="black"/>
<path d="M369.091 509.697H351.515V527.273H369.091V509.697Z" fill="black"/>
<path d="M386.667 509.697H369.091V527.273H386.667V509.697Z" fill="black"/>
<path d="M404.242 509.697H386.667V527.273H404.242V509.697Z" fill="black"/>
<path d="M439.394 509.697H421.818V527.273H439.394V509.697Z" fill="black"/>
<path d="M492.121 509.697H474.545V527.273H492.121V509.697Z" fill="black"/>
<path d="M509.697 509.697H492.121V527.273H509.697V509.697Z" fill="black"/>
<path d="M527.273 509.697H509.697V527.273H527.273V509.697Z" fill="black"/>
<path d="M544.849 509.697H527.273V527.273H544.849V509.697Z" fill="black"/>
<path d="M580 509.697H562.424V527.273H580V509.697Z" fill="black"/>
<path d="M17.5758 527.273H0V544.849H17.5758V527.273Z" fill="black"/>
<path d="M52.7273 527.273H35.1515V544.849H52.7273V527.273Z" fill="black"/>
<path d="M70.303 527.273H52.7273V544.849H70.303V527.273Z" fill="black"/>
<path d="M87.8788 527.273H70.303V544.849H87.8788V527.273Z" fill="black"/>
<path d="M123.03 527.273H105.455V544.849H123.03V527.273Z" fill="black"/>
<path d="M158.182 527.273H140.606V544.849H158.182V527.273Z" fill="black"/>
<path d="M175.758 527.273H158.182V544.849H175.758V527.273Z" fill="black"/>
<path d="M193.333 527.273H175.758V544.849H193.333V527.273Z" fill="black"/>
<path d="M210.909 527.273H193.333V544.849H210.909V527.273Z" fill="black"/>
<path d="M246.061 527.273H228.485V544.849H246.061V527.273Z" fill="black"/>
<path d="M281.212 527.273H263.636V544.849H281.212V527.273Z" fill="black"/>
<path d="M316.364 527.273H298.788V544.849H316.364V527.273Z" fill="black"/>
<path d="M333.939 527.273H316.364V544.849H333.939L333.939 527.273Z" fill="black"/>
<path d="M351.515 527.273H333.939L333.939 544.849H351.515V527.273Z" fill="black"/>
<path d="M386.667 527.273H369.091V544.849H386.667V527.273Z" fill="black"/>
<path d="M404.242 527.273H386.667V544.849H404.242V527.273Z" fill="black"/>
<path d="M421.818 527.273H404.242V544.849H421.818V527.273Z" fill="black"/>
<path d="M456.97 527.273H439.394V544.849H456.97V527.273Z" fill="black"/>
<path d="M474.545 527.273H456.97V544.849H474.545V527.273Z" fill="black"/>
<path d="M492.121 527.273H474.545V544.849H492.121V527.273Z" fill="black"/>
<path d="M527.273 527.273H509.697V544.849H527.273V527.273Z" fill="black"/>
<path d="M544.849 527.273H527.273V544.849H544.849V527.273Z" fill="black"/>
<path d="M562.424 527.273H544.849V544.849H562.424V527.273Z" fill="black"/>
<path d="M17.5758 544.849H0V562.424H17.5758V544.849Z" fill="black"/>
<path d="M123.03 544.849H105.455V562.424H123.03V544.849Z" fill="black"/>
<path d="M175.758 544.849H158.182V562.424H175.758V544.849Z" fill="black"/>
<path d="M246.061 544.849H228.485V562.424H246.061V544.849Z" fill="black"/>
<path d="M263.636 544.849H246.061V562.424H263.636V544.849Z" fill="black"/>
<path d="M316.364 544.849H298.788V562.424H316.364V544.849Z" fill="black"/>
<path d="M369.091 544.849H351.515V562.424H369.091V544.849Z" fill="black"/>
<path d="M404.242 544.849H386.667V562.424H404.242V544.849Z" fill="black"/>
<path d="M439.394 544.849H421.818V562.424H439.394V544.849Z" fill="black"/>
<path d="M456.97 544.849H439.394V562.424H456.97V544.849Z" fill="black"/>
<path d="M580 544.849H562.424V562.424H580V544.849Z" fill="black"/>
<path d="M17.5758 562.424H0V580H17.5758V562.424Z" fill="black"/>
<path d="M35.1515 562.424H17.5758V580H35.1515V562.424Z" fill="black"/>
<path d="M52.7273 562.424H35.1515V580H52.7273V562.424Z" fill="black"/>
<path d="M70.303 562.424H52.7273V580H70.303V562.424Z" fill="black"/>
<path d="M87.8788 562.424H70.303V580H87.8788V562.424Z" fill="black"/>
<path d="M105.455 562.424H87.8788V580H105.455V562.424Z" fill="black"/>
<path d="M123.03 562.424H105.455V580H123.03V562.424Z" fill="black"/>
<path d="M175.758 562.424H158.182V580H175.758V562.424Z" fill="black"/>
<path d="M210.909 562.424H193.333V580H210.909V562.424Z" fill="black"/>
<path d="M246.061 562.424H228.485V580H246.061V562.424Z" fill="black"/>
<path d="M298.788 562.424H281.212V580H298.788V562.424Z" fill="black"/>
<path d="M316.364 562.424H298.788V580H316.364V562.424Z" fill="black"/>
<path d="M386.667 562.424H369.091V580H386.667V562.424Z" fill="black"/>
<path d="M421.818 562.424H404.242V580H421.818V562.424Z" fill="black"/>
<path d="M439.394 562.424H421.818V580H439.394V562.424Z" fill="black"/>
<path d="M456.97 562.424H439.394V580H456.97V562.424Z" fill="black"/>
<path d="M492.121 562.424H474.545V580H492.121V562.424Z" fill="black"/>
<path d="M527.273 562.424H509.697V580H527.273V562.424Z" fill="black"/>
</svg>
