<svg width="579" height="580" viewBox="0 0 579 580" fill="none" xmlns="http://www.w3.org/2000/svg">
<path d="M17.5455 0H0V17.5758H17.5455V0Z" fill="black"/>
<path d="M35.0909 0H17.5455V17.5758H35.0909V0Z" fill="black"/>
<path d="M52.6364 0H35.0909V17.5758H52.6364V0Z" fill="black"/>
<path d="M70.1818 0H52.6364V17.5758H70.1818V0Z" fill="black"/>
<path d="M87.7273 0H70.1818V17.5758H87.7273V0Z" fill="black"/>
<path d="M105.273 0H87.7273V17.5758H105.273V0Z" fill="black"/>
<path d="M122.818 0H105.273V17.5758H122.818V0Z" fill="black"/>
<path d="M157.909 0H140.364V17.5758H157.909V0Z" fill="black"/>
<path d="M193 0H175.455V17.5758H193V0Z" fill="black"/>
<path d="M210.545 0H193V17.5758H210.545V0Z" fill="black"/>
<path d="M228.091 0H210.545V17.5758H228.091V0Z" fill="black"/>
<path d="M245.636 0H228.091V17.5758H245.636V0Z" fill="black"/>
<path d="M280.727 0H263.182V17.5758H280.727V0Z" fill="black"/>
<path d="M315.818 0H298.273V17.5758H315.818V0Z" fill="black"/>
<path d="M333.364 0H315.818V17.5758H333.364V0Z" fill="black"/>
<path d="M368.455 0H350.909V17.5758H368.455V0Z" fill="black"/>
<path d="M386 0H368.455V17.5758H386V0Z" fill="black"/>
<path d="M403.545 0H386V17.5758H403.545V0Z" fill="black"/>
<path d="M421.091 0H403.545V17.5758H421.091V0Z" fill="black"/>
<path d="M438.636 0H421.091V17.5758H438.636V0Z" fill="black"/>
<path d="M473.727 0H456.182V17.5758H473.727V0Z" fill="black"/>
<path d="M491.273 0H473.727V17.5758H491.273V0Z" fill="black"/>
<path d="M508.818 0H491.273V17.5758H508.818V0Z" fill="black"/>
<path d="M526.364 0H508.818V17.5758H526.364V0Z" fill="black"/>
<path d="M543.909 0H526.364V17.5758H543.909V0Z" fill="black"/>
<path d="M561.455 0H543.909V17.5758H561.455V0Z" fill="black"/>
<path d="M579 0H561.455V17.5758H579V0Z" fill="black"/>
<path d="M17.5455 17.5758H0V35.1515H17.5455V17.5758Z" fill="black"/>
<path d="M122.818 17.5758H105.273V35.1515H122.818V17.5758Z" fill="black"/>
<path d="M193 17.5758H175.455V35.1515H193V17.5758Z" fill="black"/>
<path d="M210.545 17.5758H193V35.1515H210.545V17.5758Z" fill="black"/>
<path d="M315.818 17.5758H298.273V35.1515H315.818V17.5758Z" fill="black"/>
<path d="M368.455 17.5758H350.909V35.1515H368.455V17.5758Z" fill="black"/>
<path d="M386 17.5758H368.455V35.1515H386V17.5758Z" fill="black"/>
<path d="M438.636 17.5758H421.091V35.1515H438.636V17.5758Z" fill="black"/>
<path d="M473.727 17.5758H456.182V35.1515H473.727V17.5758Z" fill="black"/>
<path d="M579 17.5758H561.455V35.1515H579V17.5758Z" fill="black"/>
<path d="M17.5455 35.1515H0V52.7273H17.5455V35.1515Z" fill="black"/>
<path d="M52.6364 35.1515H35.0909V52.7273H52.6364V35.1515Z" fill="black"/>
<path d="M70.1818 35.1515H52.6364V52.7273H70.1818V35.1515Z" fill="black"/>
<path d="M87.7273 35.1515H70.1818V52.7273H87.7273V35.1515Z" fill="black"/>
<path d="M122.818 35.1515H105.273V52.7273H122.818V35.1515Z" fill="black"/>
<path d="M175.455 35.1515H157.909V52.7273H175.455V35.1515Z" fill="black"/>
<path d="M210.545 35.1515H193V52.7273H210.545V35.1515Z" fill="black"/>
<path d="M245.636 35.1515H228.091V52.7273H245.636V35.1515Z" fill="black"/>
<path d="M263.182 35.1515H245.636V52.7273H263.182V35.1515Z" fill="black"/>
<path d="M280.727 35.1515H263.182V52.7273H280.727V35.1515Z" fill="black"/>
<path d="M315.818 35.1515H298.273V52.7273H315.818V35.1515Z" fill="black"/>
<path d="M386 35.1515H368.455V52.7273H386V35.1515Z" fill="black"/>
<path d="M403.545 35.1515H386V52.7273H403.545V35.1515Z" fill="black"/>
<path d="M421.091 35.1515H403.545V52.7273H421.091V35.1515Z" fill="black"/>
<path d="M473.727 35.1515H456.182V52.7273H473.727V35.1515Z" fill="black"/>
<path d="M508.818 35.1515H491.273V52.7273H508.818V35.1515Z" fill="black"/>
<path d="M526.364 35.1515H508.818V52.7273H526.364V35.1515Z" fill="black"/>
<path d="M543.909 35.1515H526.364V52.7273H543.909V35.1515Z" fill="black"/>
<path d="M579 35.1515H561.455V52.7273H579V35.1515Z" fill="black"/>
<path d="M17.5455 52.7273H0V70.303H17.5455V52.7273Z" fill="black"/>
<path d="M52.6364 52.7273H35.0909V70.303H52.6364V52.7273Z" fill="black"/>
<path d="M70.1818 52.7273H52.6364V70.303H70.1818V52.7273Z" fill="black"/>
<path d="M87.7273 52.7273H70.1818V70.303H87.7273V52.7273Z" fill="black"/>
<path d="M122.818 52.7273H105.273V70.303H122.818V52.7273Z" fill="black"/>
<path d="M193 52.7273H175.455V70.303H193V52.7273Z" fill="black"/>
<path d="M210.545 52.7273H193V70.303H210.545V52.7273Z" fill="black"/>
<path d="M263.182 52.7273H245.636V70.303H263.182V52.7273Z" fill="black"/>
<path d="M280.727 52.7273H263.182V70.303H280.727V52.7273Z" fill="black"/>
<path d="M298.273 52.7273H280.727V70.303H298.273V52.7273Z" fill="black"/>
<path d="M368.455 52.7273H350.909V70.303H368.455V52.7273Z" fill="black"/>
<path d="M386 52.7273H368.455V70.303H386V52.7273Z" fill="black"/>
<path d="M403.545 52.7273H386V70.303H403.545V52.7273Z" fill="black"/>
<path d="M473.727 52.7273H456.182V70.303H473.727V52.7273Z" fill="black"/>
<path d="M508.818 52.7273H491.273V70.303H508.818V52.7273Z" fill="black"/>
<path d="M526.364 52.7273H508.818V70.303H526.364V52.7273Z" fill="black"/>
<path d="M543.909 52.7273H526.364V70.303H543.909V52.7273Z" fill="black"/>
<path d="M579 52.7273H561.455V70.303H579V52.7273Z" fill="black"/>
<path d="M17.5455 70.303H0V87.8788H17.5455V70.303Z" fill="black"/>
<path d="M52.6364 70.303H35.0909V87.8788H52.6364V70.303Z" fill="black"/>
<path d="M70.1818 70.303H52.6364V87.8788H70.1818V70.303Z" fill="black"/>
<path d="M87.7273 70.303H70.1818V87.8788H87.7273V70.303Z" fill="black"/>
<path d="M122.818 70.303H105.273V87.8788H122.818V70.303Z" fill="black"/>
<path d="M245.636 70.303H228.091V87.8788H245.636V70.303Z" fill="black"/>
<path d="M263.182 70.303H245.636V87.8788H263.182V70.303Z" fill="black"/>
<path d="M333.364 70.303H315.818V87.8788H333.364V70.303Z" fill="black"/>
<path d="M350.909 70.303H333.364V87.8788H350.909V70.303Z" fill="black"/>
<path d="M368.455 70.303H350.909V87.8788H368.455V70.303Z" fill="black"/>
<path d="M403.545 70.303H386V87.8788H403.545V70.303Z" fill="black"/>
<path d="M421.091 70.303H403.545V87.8788H421.091V70.303Z" fill="black"/>
<path d="M438.636 70.303H421.091V87.8788H438.636V70.303Z" fill="black"/>
<path d="M473.727 70.303H456.182V87.8788H473.727V70.303Z" fill="black"/>
<path d="M508.818 70.303H491.273V87.8788H508.818V70.303Z" fill="black"/>
<path d="M526.364 70.303H508.818V87.8788H526.364V70.303Z" fill="black"/>
<path d="M543.909 70.303H526.364V87.8788H543.909V70.303Z" fill="black"/>
<path d="M579 70.303H561.455V87.8788H579V70.303Z" fill="black"/>
<path d="M17.5455 87.8788H0V105.455H17.5455V87.8788Z" fill="black"/>
<path d="M122.818 87.8788H105.273V105.455H122.818V87.8788Z" fill="black"/>
<path d="M175.455 87.8788H157.909V105.455H175.455V87.8788Z" fill="black"/>
<path d="M193 87.8788H175.455V105.455H193V87.8788Z" fill="black"/>
<path d="M298.273 87.8788H280.727V105.455H298.273V87.8788Z" fill="black"/>
<path d="M315.818 87.8788H298.273V105.455H315.818V87.8788Z" fill="black"/>
<path d="M333.364 87.8788H315.818V105.455H333.364V87.8788Z" fill="black"/>
<path d="M368.455 87.8788H350.909V105.455H368.455V87.8788Z" fill="black"/>
<path d="M403.545 87.8788H386V105.455H403.545V87.8788Z" fill="black"/>
<path d="M421.091 87.8788H403.545V105.455H421.091V87.8788Z" fill="black"/>
<path d="M473.727 87.8788H456.182V105.455H473.727V87.8788Z" fill="black"/>
<path d="M579 87.8788H561.455V105.455H579V87.8788Z" fill="black"/>
<path d="M17.5455 105.455H0V123.03H17.5455V105.455Z" fill="black"/>
<path d="M35.0909 105.455H17.5455V123.03H35.0909V105.455Z" fill="black"/>
<path d="M52.6364 105.455H35.0909V123.03H52.6364V105.455Z" fill="black"/>
<path d="M70.1818 105.455H52.6364V123.03H70.1818V105.455Z" fill="black"/>
<path d="M87.7273 105.455H70.1818V123.03H87.7273V105.455Z" fill="black"/>
<path d="M105.273 105.455H87.7273V123.03H105.273V105.455Z" fill="black"/>
<path d="M122.818 105.455H105.273V123.03H122.818V105.455Z" fill="black"/>
<path d="M157.909 105.455H140.364V123.03H157.909V105.455Z" fill="black"/>
<path d="M193 105.455H175.455V123.03H193V105.455Z" fill="black"/>
<path d="M228.091 105.455H210.545V123.03H228.091V105.455Z" fill="black"/>
<path d="M263.182 105.455H245.636V123.03H263.182V105.455Z" fill="black"/>
<path d="M298.273 105.455H280.727V123.03H298.273V105.455Z" fill="black"/>
<path d="M333.364 105.455H315.818V123.03H333.364V105.455Z" fill="black"/>
<path d="M368.455 105.455H350.909V123.03H368.455V105.455Z" fill="black"/>
<path d="M403.545 105.455H386V123.03H403.545V105.455Z" fill="black"/>
<path d="M438.636 105.455H421.091V123.03H438.636V105.455Z" fill="black"/>
<path d="M473.727 105.455H456.182V123.03H473.727V105.455Z" fill="black"/>
<path d="M491.273 105.455H473.727V123.03H491.273V105.455Z" fill="black"/>
<path d="M508.818 105.455H491.273V123.03H508.818V105.455Z" fill="black"/>
<path d="M526.364 105.455H508.818V123.03H526.364V105.455Z" fill="black"/>
<path d="M543.909 105.455H526.364V123.03H543.909V105.455Z" fill="black"/>
<path d="M561.455 105.455H543.909V123.03H561.455V105.455Z" fill="black"/>
<path d="M579 105.455H561.455V123.03H579V105.455Z" fill="black"/>
<path d="M175.455 123.03H157.909V140.606H175.455V123.03Z" fill="black"/>
<path d="M245.636 123.03H228.091V140.606H245.636V123.03Z" fill="black"/>
<path d="M333.364 123.03H315.818V140.606H333.364V123.03Z" fill="black"/>
<path d="M350.909 123.03H333.364V140.606H350.909V123.03Z" fill="black"/>
<path d="M368.455 123.03H350.909V140.606H368.455V123.03Z" fill="black"/>
<path d="M386 123.03H368.455V140.606H386V123.03Z" fill="black"/>
<path d="M403.545 123.03H386V140.606H403.545V123.03Z" fill="black"/>
<path d="M35.0909 140.606H17.5455V158.182H35.0909V140.606Z" fill="black"/>
<path d="M52.6364 140.606H35.0909V158.182H52.6364V140.606Z" fill="black"/>
<path d="M70.1818 140.606H52.6364V158.182H70.1818V140.606Z" fill="black"/>
<path d="M122.818 140.606H105.273V158.182H122.818V140.606Z" fill="black"/>
<path d="M140.364 140.606H122.818V158.182H140.364V140.606Z" fill="black"/>
<path d="M157.909 140.606H140.364V158.182H157.909V140.606Z" fill="black"/>
<path d="M193 140.606H175.455V158.182H193V140.606Z" fill="black"/>
<path d="M210.545 140.606H193V158.182H210.545V140.606Z" fill="black"/>
<path d="M228.091 140.606H210.545V158.182H228.091V140.606Z" fill="black"/>
<path d="M386 140.606H368.455V158.182H386V140.606Z" fill="black"/>
<path d="M403.545 140.606H386V158.182H403.545V140.606Z" fill="black"/>
<path d="M438.636 140.606H421.091V158.182H438.636V140.606Z" fill="black"/>
<path d="M456.182 140.606H438.636V158.182H456.182V140.606Z" fill="black"/>
<path d="M579 140.606H561.455V158.182H579V140.606Z" fill="black"/>
<path d="M17.5455 158.182H0V175.758H17.5455V158.182Z" fill="black"/>
<path d="M52.6364 158.182H35.0909V175.758H52.6364V158.182Z" fill="black"/>
<path d="M70.1818 158.182H52.6364V175.758H70.1818V158.182Z" fill="black"/>
<path d="M210.545 158.182H193V175.758H210.545V158.182Z" fill="black"/>
<path d="M228.091 158.182H210.545V175.758H228.091V158.182Z" fill="black"/>
<path d="M315.818 158.182H298.273V175.758H315.818V158.182Z" fill="black"/>
<path d="M350.909 158.182H333.364V175.758H350.909V158.182Z" fill="black"/>
<path d="M386 158.182H368.455V175.758H386V158.182Z" fill="black"/>
<path d="M473.727 158.182H456.182V175.758H473.727V158.182Z" fill="black"/>
<path d="M526.364 158.182H508.818V175.758H526.364V158.182Z" fill="black"/>
<path d="M561.455 158.182H543.909V175.758H561.455V158.182Z" fill="black"/>
<path d="M52.6364 175.758H35.0909V193.333H52.6364V175.758Z" fill="black"/>
<path d="M70.1818 175.758H52.6364V193.333H70.1818V175.758Z" fill="black"/>
<path d="M87.7273 175.758H70.1818V193.333H87.7273V175.758Z" fill="black"/>
<path d="M105.273 175.758H87.7273V193.333H105.273V175.758Z" fill="black"/>
<path d="M122.818 175.758H105.273V193.333H122.818V175.758Z" fill="black"/>
<path d="M157.909 175.758H140.364V193.333H157.909V175.758Z" fill="black"/>
<path d="M175.455 175.758H157.909V193.333H175.455V175.758Z" fill="black"/>
<path d="M193 175.758H175.455V193.333H193V175.758Z" fill="black"/>
<path d="M245.636 175.758H228.091V193.333H245.636V175.758Z" fill="black"/>
<path d="M263.182 175.758H245.636V193.333H263.182V175.758Z" fill="black"/>
<path d="M350.909 175.758H333.364V193.333H350.909V175.758Z" fill="black"/>
<path d="M368.455 175.758H350.909V193.333H368.455V175.758Z" fill="black"/>
<path d="M421.091 175.758H403.545V193.333H421.091V175.758Z" fill="black"/>
<path d="M438.636 175.758H421.091V193.333H438.636V175.758Z" fill="black"/>
<path d="M456.182 175.758H438.636V193.333H456.182V175.758Z" fill="black"/>
<path d="M491.273 175.758H473.727V193.333H491.273V175.758Z" fill="black"/>
<path d="M579 175.758H561.455V193.333H579V175.758Z" fill="black"/>
<path d="M35.0909 193.333H17.5455V210.909H35.0909V193.333Z" fill="black"/>
<path d="M52.6364 193.333H35.0909V210.909H52.6364V193.333Z" fill="black"/>
<path d="M70.1818 193.333H52.6364V210.909H70.1818V193.333Z" fill="black"/>
<path d="M105.273 193.333H87.7273V210.909H105.273V193.333Z" fill="black"/>
<path d="M140.364 193.333H122.818V210.909H140.364V193.333Z" fill="black"/>
<path d="M157.909 193.333H140.364V210.909H157.909V193.333Z" fill="black"/>
<path d="M175.455 193.333H157.909V210.909H175.455V193.333Z" fill="black"/>
<path d="M298.273 193.333H280.727V210.909H298.273V193.333Z" fill="black"/>
<path d="M350.909 193.333H333.364V210.909H350.909V193.333Z" fill="black"/>
<path d="M368.455 193.333H350.909V210.909H368.455V193.333Z" fill="black"/>
<path d="M386 193.333H368.455V210.909H386V193.333Z" fill="black"/>
<path d="M421.091 193.333H403.545V210.909H421.091V193.333Z" fill="black"/>
<path d="M456.182 193.333H438.636V210.909H456.182V193.333Z" fill="black"/>
<path d="M473.727 193.333H456.182V210.909H473.727V193.333Z" fill="black"/>
<path d="M526.364 193.333H508.818V210.909H526.364V193.333Z" fill="black"/>
<path d="M579 193.333H561.455V210.909H579V193.333Z" fill="black"/>
<path d="M17.5455 210.909H0V228.485H17.5455V210.909Z" fill="black"/>
<path d="M35.0909 210.909H17.5455V228.485H35.0909V210.909Z" fill="black"/>
<path d="M52.6364 210.909H35.0909V228.485H52.6364V210.909Z" fill="black"/>
<path d="M70.1818 210.909H52.6364V228.485H70.1818V210.909Z" fill="black"/>
<path d="M105.273 210.909H87.7273V228.485H105.273V210.909Z" fill="black"/>
<path d="M122.818 210.909H105.273V228.485H122.818V210.909Z" fill="black"/>
<path d="M140.364 210.909H122.818V228.485H140.364V210.909Z" fill="black"/>
<path d="M157.909 210.909H140.364V228.485H157.909V210.909Z" fill="black"/>
<path d="M210.545 210.909H193V228.485H210.545V210.909Z" fill="black"/>
<path d="M228.091 210.909H210.545V228.485H228.091V210.909Z" fill="black"/>
<path d="M280.727 210.909H263.182V228.485H280.727V210.909Z" fill="black"/>
<path d="M350.909 210.909H333.364V228.485H350.909V210.909Z" fill="black"/>
<path d="M368.455 210.909H350.909V228.485H368.455V210.909Z" fill="black"/>
<path d="M403.545 210.909H386V228.485H403.545V210.909Z" fill="black"/>
<path d="M438.636 210.909H421.091V228.485H438.636V210.909Z" fill="black"/>
<path d="M456.182 210.909H438.636V228.485H456.182V210.909Z" fill="black"/>
<path d="M491.273 210.909H473.727V228.485H491.273V210.909Z" fill="black"/>
<path d="M508.818 210.909H491.273V228.485H508.818V210.909Z" fill="black"/>
<path d="M561.455 210.909H543.909V228.485H561.455V210.909Z" fill="black"/>
<path d="M579 210.909H561.455V228.485H579V210.909Z" fill="black"/>
<path d="M35.0909 228.485H17.5455V246.061H35.0909V228.485Z" fill="black"/>
<path d="M52.6364 228.485H35.0909V246.061H52.6364V228.485Z" fill="black"/>
<path d="M105.273 228.485H87.7273V246.061H105.273V228.485Z" fill="black"/>
<path d="M157.909 228.485H140.364V246.061H157.909V228.485Z" fill="black"/>
<path d="M228.091 228.485H210.545V246.061H228.091V228.485Z" fill="black"/>
<path d="M263.182 228.485H245.636V246.061H263.182V228.485Z" fill="black"/>
<path d="M280.727 228.485H263.182V246.061H280.727V228.485Z" fill="black"/>
<path d="M315.818 228.485H298.273V246.061H315.818V228.485Z" fill="black"/>
<path d="M333.364 228.485H315.818V246.061H333.364L333.364 228.485Z" fill="black"/>
<path d="M350.909 228.485H333.364L333.364 246.061H350.909V228.485Z" fill="black"/>
<path d="M386 228.485H368.455V246.061H386V228.485Z" fill="black"/>
<path d="M473.727 228.485H456.182V246.061H473.727V228.485Z" fill="black"/>
<path d="M508.818 228.485H491.273V246.061H508.818V228.485Z" fill="black"/>
<path d="M579 228.485H561.455V246.061H579V228.485Z" fill="black"/>
<path d="M35.0909 246.061H17.5455V263.636H35.0909V246.061Z" fill="black"/>
<path d="M122.818 246.061H105.273V263.636H122.818V246.061Z" fill="black"/>
<path d="M210.545 246.061H193V263.636H210.545V246.061Z" fill="black"/>
<path d="M228.091 246.061H210.545V263.636H228.091V246.061Z" fill="black"/>
<path d="M245.636 246.061H228.091V263.636H245.636V246.061Z" fill="black"/>
<path d="M263.182 246.061H245.636V263.636H263.182V246.061Z" fill="black"/>
<path d="M315.818 246.061H298.273V263.636H315.818V246.061Z" fill="black"/>
<path d="M350.909 246.061H333.364L333.364 263.636H350.909V246.061Z" fill="black"/>
<path d="M403.545 246.061H386V263.636H403.545V246.061Z" fill="black"/>
<path d="M421.091 246.061H403.545V263.636H421.091V246.061Z" fill="black"/>
<path d="M438.636 246.061H421.091V263.636H438.636V246.061Z" fill="black"/>
<path d="M491.273 246.061H473.727V263.636H491.273V246.061Z" fill="black"/>
<path d="M508.818 246.061H491.273V263.636H508.818V246.061Z" fill="black"/>
<path d="M561.455 246.061H543.909V263.636H561.455V246.061Z" fill="black"/>
<path d="M579 246.061H561.455V263.636H579V246.061Z" fill="black"/>
<path d="M70.1818 263.636H52.6364V281.212H70.1818V263.636Z" fill="black"/>
<path d="M87.7273 263.636H70.1818V281.212H87.7273V263.636Z" fill="black"/>
<path d="M157.909 263.636H140.364V281.212H157.909V263.636Z" fill="black"/>
<path d="M175.455 263.636H157.909V281.212H175.455V263.636Z" fill="black"/>
<path d="M193 263.636H175.455V281.212H193V263.636Z" fill="black"/>
<path d="M210.545 263.636H193V281.212H210.545V263.636Z" fill="black"/>
<path d="M228.091 263.636H210.545V281.212H228.091V263.636Z" fill="black"/>
<path d="M280.727 263.636H263.182V281.212H280.727V263.636Z" fill="black"/>
<path d="M315.818 263.636H298.273V281.212H315.818V263.636Z" fill="black"/>
<path d="M333.364 263.636H315.818V281.212H333.364L333.364 263.636Z" fill="black"/>
<path d="M368.455 263.636H350.909V281.212H368.455V263.636Z" fill="black"/>
<path d="M403.545 263.636H386V281.212H403.545V263.636Z" fill="black"/>
<path d="M438.636 263.636H421.091V281.212H438.636V263.636Z" fill="black"/>
<path d="M456.182 263.636H438.636V281.212H456.182V263.636Z" fill="black"/>
<path d="M473.727 263.636H456.182V281.212H473.727V263.636Z" fill="black"/>
<path d="M491.273 263.636H473.727V281.212H491.273V263.636Z" fill="black"/>
<path d="M561.455 263.636H543.909V281.212H561.455V263.636Z" fill="black"/>
<path d="M17.5455 281.212H0V298.788H17.5455V281.212Z" fill="black"/>
<path d="M35.0909 281.212H17.5455V298.788H35.0909V281.212Z" fill="black"/>
<path d="M52.6364 281.212H35.0909V298.788H52.6364V281.212Z" fill="black"/>
<path d="M105.273 281.212H87.7273V298.788H105.273V281.212Z" fill="black"/>
<path d="M122.818 281.212H105.273V298.788H122.818V281.212Z" fill="black"/>
<path d="M175.455 281.212H157.909V298.788H175.455V281.212Z" fill="black"/>
<path d="M228.091 281.212H210.545V298.788H228.091V281.212Z" fill="black"/>
<path d="M245.636 281.212H228.091V298.788H245.636V281.212Z" fill="black"/>
<path d="M298.273 281.212H280.727V298.788H298.273V281.212Z" fill="black"/>
<path d="M315.818 281.212H298.273V298.788H315.818V281.212Z" fill="black"/>
<path d="M368.455 281.212H350.909V298.788H368.455V281.212Z" fill="black"/>
<path d="M386 281.212H368.455V298.788H386V281.212Z" fill="black"/>
<path d="M403.545 281.212H386V298.788H403.545V281.212Z" fill="black"/>
<path d="M438.636 281.212H421.091V298.788H438.636V281.212Z" fill="black"/>
<path d="M456.182 281.212H438.636V298.788H456.182V281.212Z" fill="black"/>
<path d="M473.727 281.212H456.182V298.788H473.727V281.212Z" fill="black"/>
<path d="M526.364 281.212H508.818V298.788H526.364V281.212Z" fill="black"/>
<path d="M543.909 281.212H526.364V298.788H543.909V281.212Z" fill="black"/>
<path d="M561.455 281.212H543.909V298.788H561.455V281.212Z" fill="black"/>
<path d="M35.0909 298.788H17.5455V316.364H35.0909V298.788Z" fill="black"/>
<path d="M52.6364 298.788H35.0909V316.364H52.6364V298.788Z" fill="black"/>
<path d="M87.7273 298.788H70.1818V316.364H87.7273V298.788Z" fill="black"/>
<path d="M105.273 298.788H87.7273V316.364H105.273V298.788Z" fill="black"/>
<path d="M157.909 298.788H140.364V316.364H157.909V298.788Z" fill="black"/>
<path d="M228.091 298.788H210.545V316.364H228.091V298.788Z" fill="black"/>
<path d="M263.182 298.788H245.636V316.364H263.182V298.788Z" fill="black"/>
<path d="M298.273 298.788H280.727V316.364H298.273V298.788Z" fill="black"/>
<path d="M315.818 298.788H298.273V316.364H315.818V298.788Z" fill="black"/>
<path d="M350.909 298.788H333.364V316.364H350.909V298.788Z" fill="black"/>
<path d="M386 298.788H368.455V316.364H386V298.788Z" fill="black"/>
<path d="M403.545 298.788H386V316.364H403.545V298.788Z" fill="black"/>
<path d="M526.364 298.788H508.818V316.364H526.364V298.788Z" fill="black"/>
<path d="M543.909 298.788H526.364V316.364H543.909V298.788Z" fill="black"/>
<path d="M579 298.788H561.455V316.364H579V298.788Z" fill="black"/>
<path d="M17.5455 316.364H0V333.939H17.5455V316.364Z" fill="black"/>
<path d="M52.6364 316.364H35.0909V333.939H52.6364V316.364Z" fill="black"/>
<path d="M87.7273 316.364H70.1818V333.939H87.7273V316.364Z" fill="black"/>
<path d="M122.818 316.364H105.273V333.939H122.818V316.364Z" fill="black"/>
<path d="M140.364 316.364H122.818V333.939H140.364V316.364Z" fill="black"/>
<path d="M175.455 316.364H157.909V333.939H175.455V316.364Z" fill="black"/>
<path d="M193 316.364H175.455V333.939H193V316.364Z" fill="black"/>
<path d="M228.091 316.364H210.545V333.939H228.091V316.364Z" fill="black"/>
<path d="M263.182 316.364H245.636V333.939H263.182V316.364Z" fill="black"/>
<path d="M315.818 316.364H298.273V333.939H315.818V316.364Z" fill="black"/>
<path d="M350.909 316.364H333.364V333.939H350.909V316.364Z" fill="black"/>
<path d="M386 316.364H368.455V333.939H386V316.364Z" fill="black"/>
<path d="M456.182 316.364H438.636V333.939H456.182V316.364Z" fill="black"/>
<path d="M473.727 316.364H456.182V333.939H473.727V316.364Z" fill="black"/>
<path d="M508.818 316.364H491.273V333.939H508.818V316.364Z" fill="black"/>
<path d="M579 316.364H561.455V333.939H579V316.364Z" fill="black"/>
<path d="M70.1818 333.939H52.6364V351.515H70.1818V333.939Z" fill="black"/>
<path d="M175.455 333.939H157.909V351.515H175.455V333.939Z" fill="black"/>
<path d="M228.091 333.939H210.545V351.515H228.091V333.939Z" fill="black"/>
<path d="M263.182 333.939H245.636V351.515H263.182V333.939Z" fill="black"/>
<path d="M280.727 333.939L263.182 333.939V351.515H280.727V333.939Z" fill="black"/>
<path d="M298.273 333.939L280.727 333.939V351.515H298.273V333.939Z" fill="black"/>
<path d="M315.818 333.939H298.273V351.515H315.818V333.939Z" fill="black"/>
<path d="M333.364 333.939H315.818V351.515H333.364L333.364 333.939Z" fill="black"/>
<path d="M350.909 333.939H333.364L333.364 351.515H350.909V333.939Z" fill="black"/>
<path d="M438.636 333.939L421.091 333.939V351.515H438.636V333.939Z" fill="black"/>
<path d="M456.182 333.939H438.636V351.515H456.182V333.939Z" fill="black"/>
<path d="M491.273 333.939H473.727V351.515H491.273V333.939Z" fill="black"/>
<path d="M561.455 333.939L543.909 333.939V351.515H561.455V333.939Z" fill="black"/>
<path d="M579 333.939H561.455V351.515H579V333.939Z" fill="black"/>
<path d="M17.5455 351.515H0V369.091H17.5455V351.515Z" fill="black"/>
<path d="M35.0909 351.515H17.5455V369.091H35.0909V351.515Z" fill="black"/>
<path d="M52.6364 351.515H35.0909V369.091H52.6364V351.515Z" fill="black"/>
<path d="M105.273 351.515H87.7273V369.091H105.273V351.515Z" fill="black"/>
<path d="M122.818 351.515H105.273V369.091H122.818V351.515Z" fill="black"/>
<path d="M193 351.515H175.455V369.091H193V351.515Z" fill="black"/>
<path d="M228.091 351.515H210.545V369.091H228.091V351.515Z" fill="black"/>
<path d="M245.636 351.515H228.091V369.091H245.636V351.515Z" fill="black"/>
<path d="M315.818 351.515H298.273V369.091H315.818V351.515Z" fill="black"/>
<path d="M333.364 351.515H315.818V369.091H333.364V351.515Z" fill="black"/>
<path d="M368.455 351.515H350.909V369.091H368.455V351.515Z" fill="black"/>
<path d="M386 351.515H368.455V369.091H386V351.515Z" fill="black"/>
<path d="M403.545 351.515H386V369.091H403.545V351.515Z" fill="black"/>
<path d="M456.182 351.515H438.636V369.091H456.182V351.515Z" fill="black"/>
<path d="M473.727 351.515H456.182V369.091H473.727V351.515Z" fill="black"/>
<path d="M526.364 351.515H508.818V369.091H526.364V351.515Z" fill="black"/>
<path d="M543.909 351.515H526.364V369.091H543.909V351.515Z" fill="black"/>
<path d="M561.455 351.515H543.909V369.091H561.455V351.515Z" fill="black"/>
<path d="M17.5455 369.091H0V386.667H17.5455V369.091Z" fill="black"/>
<path d="M35.0909 369.091H17.5455V386.667H35.0909V369.091Z" fill="black"/>
<path d="M52.6364 369.091H35.0909V386.667H52.6364V369.091Z" fill="black"/>
<path d="M70.1818 369.091H52.6364V386.667H70.1818V369.091Z" fill="black"/>
<path d="M105.273 369.091H87.7273V386.667H105.273V369.091Z" fill="black"/>
<path d="M175.455 369.091H157.909V386.667H175.455V369.091Z" fill="black"/>
<path d="M228.091 369.091H210.545V386.667H228.091V369.091Z" fill="black"/>
<path d="M315.818 369.091H298.273V386.667H315.818V369.091Z" fill="black"/>
<path d="M350.909 369.091H333.364L333.364 386.667H350.909V369.091Z" fill="black"/>
<path d="M368.455 369.091H350.909V386.667H368.455V369.091Z" fill="black"/>
<path d="M403.545 369.091H386V386.667H403.545V369.091Z" fill="black"/>
<path d="M473.727 369.091H456.182V386.667H473.727V369.091Z" fill="black"/>
<path d="M508.818 369.091H491.273V386.667H508.818V369.091Z" fill="black"/>
<path d="M543.909 369.091H526.364V386.667H543.909V369.091Z" fill="black"/>
<path d="M17.5455 386.667H0V404.242H17.5455V386.667Z" fill="black"/>
<path d="M35.0909 386.667H17.5455V404.242H35.0909V386.667Z" fill="black"/>
<path d="M70.1818 386.667H52.6364V404.242H70.1818V386.667Z" fill="black"/>
<path d="M105.273 386.667H87.7273V404.242H105.273V386.667Z" fill="black"/>
<path d="M122.818 386.667H105.273V404.242H122.818V386.667Z" fill="black"/>
<path d="M157.909 386.667H140.364V404.242H157.909V386.667Z" fill="black"/>
<path d="M193 386.667H175.455V404.242H193V386.667Z" fill="black"/>
<path d="M210.545 386.667H193V404.242H210.545V386.667Z" fill="black"/>
<path d="M228.091 386.667H210.545V404.242H228.091V386.667Z" fill="black"/>
<path d="M298.273 386.667H280.727V404.242H298.273V386.667Z" fill="black"/>
<path d="M315.818 386.667H298.273V404.242H315.818V386.667Z" fill="black"/>
<path d="M368.455 386.667H350.909V404.242H368.455V386.667Z" fill="black"/>
<path d="M386 386.667H368.455V404.242H386V386.667Z" fill="black"/>
<path d="M403.545 386.667H386V404.242H403.545V386.667Z" fill="black"/>
<path d="M526.364 386.667H508.818V404.242H526.364V386.667Z" fill="black"/>
<path d="M543.909 386.667H526.364V404.242H543.909V386.667Z" fill="black"/>
<path d="M561.455 386.667H543.909V404.242H561.455V386.667Z" fill="black"/>
<path d="M579 386.667H561.455V404.242H579V386.667Z" fill="black"/>
<path d="M70.1818 404.242H52.6364V421.818H70.1818V404.242Z" fill="black"/>
<path d="M87.7273 404.242H70.1818V421.818H87.7273V404.242Z" fill="black"/>
<path d="M175.455 404.242H157.909V421.818H175.455V404.242Z" fill="black"/>
<path d="M210.545 404.242H193V421.818H210.545V404.242Z" fill="black"/>
<path d="M245.636 404.242H228.091V421.818H245.636V404.242Z" fill="black"/>
<path d="M280.727 404.242H263.182V421.818H280.727V404.242Z" fill="black"/>
<path d="M315.818 404.242H298.273V421.818H315.818V404.242Z" fill="black"/>
<path d="M333.364 404.242H315.818V421.818H333.364V404.242Z" fill="black"/>
<path d="M350.909 404.242H333.364V421.818H350.909V404.242Z" fill="black"/>
<path d="M386 404.242H368.455V421.818H386V404.242Z" fill="black"/>
<path d="M421.091 404.242H403.545V421.818H421.091V404.242Z" fill="black"/>
<path d="M438.636 404.242H421.091V421.818H438.636V404.242Z" fill="black"/>
<path d="M456.182 404.242H438.636V421.818H456.182V404.242Z" fill="black"/>
<path d="M473.727 404.242H456.182V421.818H473.727V404.242Z" fill="black"/>
<path d="M491.273 404.242H473.727V421.818H491.273V404.242Z" fill="black"/>
<path d="M526.364 404.242H508.818V421.818H526.364V404.242Z" fill="black"/>
<path d="M561.455 404.242H543.909V421.818H561.455V404.242Z" fill="black"/>
<path d="M52.6364 421.818H35.0909V439.394H52.6364V421.818Z" fill="black"/>
<path d="M87.7273 421.818H70.1818V439.394H87.7273V421.818Z" fill="black"/>
<path d="M122.818 421.818H105.273V439.394H122.818V421.818Z" fill="black"/>
<path d="M157.909 421.818H140.364V439.394H157.909V421.818Z" fill="black"/>
<path d="M193 421.818H175.455V439.394H193V421.818Z" fill="black"/>
<path d="M245.636 421.818H228.091V439.394H245.636V421.818Z" fill="black"/>
<path d="M263.182 421.818H245.636V439.394H263.182V421.818Z" fill="black"/>
<path d="M280.727 421.818H263.182V439.394H280.727V421.818Z" fill="black"/>
<path d="M298.273 421.818H280.727V439.394H298.273V421.818Z" fill="black"/>
<path d="M315.818 421.818H298.273V439.394H315.818V421.818Z" fill="black"/>
<path d="M386 421.818H368.455V439.394H386V421.818Z" fill="black"/>
<path d="M421.091 421.818H403.545V439.394H421.091V421.818Z" fill="black"/>
<path d="M438.636 421.818H421.091V439.394H438.636V421.818Z" fill="black"/>
<path d="M456.182 421.818H438.636V439.394H456.182V421.818Z" fill="black"/>
<path d="M473.727 421.818H456.182V439.394H473.727V421.818Z" fill="black"/>
<path d="M491.273 421.818H473.727V439.394H491.273V421.818Z" fill="black"/>
<path d="M508.818 421.818H491.273V439.394H508.818V421.818Z" fill="black"/>
<path d="M543.909 421.818H526.364V439.394H543.909V421.818Z" fill="black"/>
<path d="M579 421.818H561.455V439.394H579V421.818Z" fill="black"/>
<path d="M157.909 439.394H140.364V456.97H157.909V439.394Z" fill="black"/>
<path d="M210.545 439.394H193V456.97H210.545V439.394Z" fill="black"/>
<path d="M228.091 439.394H210.545V456.97H228.091V439.394Z" fill="black"/>
<path d="M245.636 439.394H228.091V456.97H245.636V439.394Z" fill="black"/>
<path d="M263.182 439.394H245.636V456.97H263.182V439.394Z" fill="black"/>
<path d="M280.727 439.394H263.182V456.97H280.727V439.394Z" fill="black"/>
<path d="M298.273 439.394H280.727V456.97H298.273V439.394Z" fill="black"/>
<path d="M315.818 439.394H298.273V456.97H315.818V439.394Z" fill="black"/>
<path d="M333.364 439.394H315.818V456.97H333.364V439.394Z" fill="black"/>
<path d="M350.909 439.394H333.364V456.97H350.909V439.394Z" fill="black"/>
<path d="M386 439.394H368.455V456.97H386V439.394Z" fill="black"/>
<path d="M403.545 439.394H386V456.97H403.545V439.394Z" fill="black"/>
<path d="M421.091 439.394H403.545V456.97H421.091V439.394Z" fill="black"/>
<path d="M438.636 439.394H421.091V456.97H438.636V439.394Z" fill="black"/>
<path d="M508.818 439.394H491.273V456.97H508.818V439.394Z" fill="black"/>
<path d="M526.364 439.394H508.818V456.97H526.364V439.394Z" fill="black"/>
<path d="M17.5455 456.97H0V474.545H17.5455V456.97Z" fill="black"/>
<path d="M35.0909 456.97H17.5455V474.545H35.0909V456.97Z" fill="black"/>
<path d="M52.6364 456.97H35.0909V474.545H52.6364V456.97Z" fill="black"/>
<path d="M70.1818 456.97H52.6364V474.545H70.1818V456.97Z" fill="black"/>
<path d="M87.7273 456.97H70.1818V474.545H87.7273V456.97Z" fill="black"/>
<path d="M105.273 456.97H87.7273V474.545H105.273V456.97Z" fill="black"/>
<path d="M122.818 456.97H105.273V474.545H122.818V456.97Z" fill="black"/>
<path d="M157.909 456.97H140.364V474.545H157.909V456.97Z" fill="black"/>
<path d="M210.545 456.97H193V474.545H210.545V456.97Z" fill="black"/>
<path d="M228.091 456.97H210.545V474.545H228.091V456.97Z" fill="black"/>
<path d="M245.636 456.97H228.091V474.545H245.636V456.97Z" fill="black"/>
<path d="M263.182 456.97H245.636V474.545H263.182V456.97Z" fill="black"/>
<path d="M315.818 456.97H298.273V474.545H315.818V456.97Z" fill="black"/>
<path d="M421.091 456.97H403.545V474.545H421.091V456.97Z" fill="black"/>
<path d="M438.636 456.97H421.091V474.545H438.636V456.97Z" fill="black"/>
<path d="M473.727 456.97H456.182V474.545H473.727V456.97Z" fill="black"/>
<path d="M508.818 456.97H491.273V474.545H508.818V456.97Z" fill="black"/>
<path d="M579 456.97H561.455V474.545H579V456.97Z" fill="black"/>
<path d="M17.5455 474.545H0V492.121H17.5455V474.545Z" fill="black"/>
<path d="M122.818 474.545H105.273V492.121H122.818V474.545Z" fill="black"/>
<path d="M210.545 474.545H193V492.121H210.545V474.545Z" fill="black"/>
<path d="M263.182 474.545H245.636V492.121H263.182V474.545Z" fill="black"/>
<path d="M298.273 474.545H280.727V492.121H298.273V474.545Z" fill="black"/>
<path d="M333.364 474.545H315.818V492.121H333.364V474.545Z" fill="black"/>
<path d="M421.091 474.545H403.545V492.121H421.091V474.545Z" fill="black"/>
<path d="M438.636 474.545H421.091V492.121H438.636V474.545Z" fill="black"/>
<path d="M508.818 474.545H491.273V492.121H508.818V474.545Z" fill="black"/>
<path d="M526.364 474.545H508.818V492.121H526.364V474.545Z" fill="black"/>
<path d="M543.909 474.545H526.364V492.121H543.909V474.545Z" fill="black"/>
<path d="M561.455 474.545H543.909V492.121H561.455V474.545Z" fill="black"/>
<path d="M579 474.545H561.455V492.121H579V474.545Z" fill="black"/>
<path d="M17.5455 492.121H0V509.697H17.5455V492.121Z" fill="black"/>
<path d="M52.6364 492.121H35.0909V509.697H52.6364V492.121Z" fill="black"/>
<path d="M70.1818 492.121H52.6364V509.697H70.1818V492.121Z" fill="black"/>
<path d="M87.7273 492.121H70.1818V509.697H87.7273V492.121Z" fill="black"/>
<path d="M122.818 492.121H105.273V509.697H122.818V492.121Z" fill="black"/>
<path d="M175.455 492.121H157.909V509.697H175.455V492.121Z" fill="black"/>
<path d="M193 492.121H175.455V509.697H193V492.121Z" fill="black"/>
<path d="M210.545 492.121H193V509.697H210.545V492.121Z" fill="black"/>
<path d="M280.727 492.121H263.182V509.697H280.727V492.121Z" fill="black"/>
<path d="M298.273 492.121H280.727V509.697H298.273V492.121Z" fill="black"/>
<path d="M350.909 492.121H333.364L333.364 509.697H350.909V492.121Z" fill="black"/>
<path d="M368.455 492.121H350.909V509.697H368.455V492.121Z" fill="black"/>
<path d="M386 492.121H368.455V509.697H386V492.121Z" fill="black"/>
<path d="M403.545 492.121H386V509.697H403.545V492.121Z" fill="black"/>
<path d="M438.636 492.121H421.091V509.697H438.636V492.121Z" fill="black"/>
<path d="M456.182 492.121H438.636V509.697H456.182V492.121Z" fill="black"/>
<path d="M473.727 492.121H456.182V509.697H473.727V492.121Z" fill="black"/>
<path d="M491.273 492.121H473.727V509.697H491.273V492.121Z" fill="black"/>
<path d="M508.818 492.121H491.273V509.697H508.818V492.121Z" fill="black"/>
<path d="M526.364 492.121H508.818V509.697H526.364V492.121Z" fill="black"/>
<path d="M543.909 492.121H526.364V509.697H543.909V492.121Z" fill="black"/>
<path d="M561.455 492.121H543.909V509.697H561.455V492.121Z" fill="black"/>
<path d="M17.5455 509.697H0V527.273H17.5455V509.697Z" fill="black"/>
<path d="M52.6364 509.697H35.0909V527.273H52.6364V509.697Z" fill="black"/>
<path d="M70.1818 509.697H52.6364V527.273H70.1818V509.697Z" fill="black"/>
<path d="M87.7273 509.697H70.1818V527.273H87.7273V509.697Z" fill="black"/>
<path d="M122.818 509.697H105.273V527.273H122.818V509.697Z" fill="black"/>
<path d="M157.909 509.697H140.364V527.273H157.909V509.697Z" fill="black"/>
<path d="M175.455 509.697H157.909V527.273H175.455V509.697Z" fill="black"/>
<path d="M210.545 509.697H193V527.273H210.545V509.697Z" fill="black"/>
<path d="M245.636 509.697H228.091V527.273H245.636V509.697Z" fill="black"/>
<path d="M298.273 509.697H280.727V527.273H298.273V509.697Z" fill="black"/>
<path d="M315.818 509.697H298.273V527.273H315.818V509.697Z" fill="black"/>
<path d="M333.364 509.697H315.818V527.273H333.364L333.364 509.697Z" fill="black"/>
<path d="M350.909 509.697H333.364L333.364 527.273H350.909V509.697Z" fill="black"/>
<path d="M368.455 509.697H350.909V527.273H368.455V509.697Z" fill="black"/>
<path d="M403.545 509.697H386V527.273H403.545V509.697Z" fill="black"/>
<path d="M491.273 509.697H473.727V527.273H491.273V509.697Z" fill="black"/>
<path d="M508.818 509.697H491.273V527.273H508.818V509.697Z" fill="black"/>
<path d="M543.909 509.697H526.364V527.273H543.909V509.697Z" fill="black"/>
<path d="M579 509.697H561.455V527.273H579V509.697Z" fill="black"/>
<path d="M17.5455 527.273H0V544.849H17.5455V527.273Z" fill="black"/>
<path d="M52.6364 527.273H35.0909V544.849H52.6364V527.273Z" fill="black"/>
<path d="M70.1818 527.273H52.6364V544.849H70.1818V527.273Z" fill="black"/>
<path d="M87.7273 527.273H70.1818V544.849H87.7273V527.273Z" fill="black"/>
<path d="M122.818 527.273H105.273V544.849H122.818V527.273Z" fill="black"/>
<path d="M157.909 527.273H140.364V544.849H157.909V527.273Z" fill="black"/>
<path d="M175.455 527.273H157.909V544.849H175.455V527.273Z" fill="black"/>
<path d="M193 527.273H175.455V544.849H193V527.273Z" fill="black"/>
<path d="M210.545 527.273H193V544.849H210.545V527.273Z" fill="black"/>
<path d="M245.636 527.273H228.091V544.849H245.636V527.273Z" fill="black"/>
<path d="M280.727 527.273H263.182V544.849H280.727V527.273Z" fill="black"/>
<path d="M315.818 527.273H298.273V544.849H315.818V527.273Z" fill="black"/>
<path d="M333.364 527.273H315.818V544.849H333.364V527.273Z" fill="black"/>
<path d="M350.909 527.273H333.364V544.849H350.909V527.273Z" fill="black"/>
<path d="M386 527.273H368.455V544.849H386V527.273Z" fill="black"/>
<path d="M421.091 527.273H403.545V544.849H421.091V527.273Z" fill="black"/>
<path d="M456.182 527.273H438.636V544.849H456.182V527.273Z" fill="black"/>
<path d="M473.727 527.273H456.182V544.849H473.727V527.273Z" fill="black"/>
<path d="M491.273 527.273H473.727V544.849H491.273V527.273Z" fill="black"/>
<path d="M543.909 527.273H526.364V544.849H543.909V527.273Z" fill="black"/>
<path d="M561.455 527.273H543.909V544.849H561.455V527.273Z" fill="black"/>
<path d="M17.5455 544.849H0V562.424H17.5455V544.849Z" fill="black"/>
<path d="M122.818 544.849H105.273V562.424H122.818V544.849Z" fill="black"/>
<path d="M157.909 544.849H140.364V562.424H157.909V544.849Z" fill="black"/>
<path d="M175.455 544.849H157.909V562.424H175.455V544.849Z" fill="black"/>
<path d="M245.636 544.849H228.091V562.424H245.636V544.849Z" fill="black"/>
<path d="M263.182 544.849H245.636V562.424H263.182V544.849Z" fill="black"/>
<path d="M315.818 544.849H298.273V562.424H315.818V544.849Z" fill="black"/>
<path d="M333.364 544.849H315.818V562.424H333.364V544.849Z" fill="black"/>
<path d="M350.909 544.849H333.364V562.424H350.909V544.849Z" fill="black"/>
<path d="M403.545 544.849H386V562.424H403.545V544.849Z" fill="black"/>
<path d="M456.182 544.849H438.636V562.424H456.182V544.849Z" fill="black"/>
<path d="M491.273 544.849H473.727V562.424H491.273V544.849Z" fill="black"/>
<path d="M508.818 544.849H491.273V562.424H508.818V544.849Z" fill="black"/>
<path d="M543.909 544.849H526.364V562.424H543.909V544.849Z" fill="black"/>
<path d="M579 544.849H561.455V562.424H579V544.849Z" fill="black"/>
<path d="M17.5455 562.424H0V580H17.5455V562.424Z" fill="black"/>
<path d="M35.0909 562.424H17.5455V580H35.0909V562.424Z" fill="black"/>
<path d="M52.6364 562.424H35.0909V580H52.6364V562.424Z" fill="black"/>
<path d="M70.1818 562.424H52.6364V580H70.1818V562.424Z" fill="black"/>
<path d="M87.7273 562.424H70.1818V580H87.7273V562.424Z" fill="black"/>
<path d="M105.273 562.424H87.7273V580H105.273V562.424Z" fill="black"/>
<path d="M122.818 562.424H105.273V580H122.818V562.424Z" fill="black"/>
<path d="M228.091 562.424H210.545V580H228.091V562.424Z" fill="black"/>
<path d="M245.636 562.424H228.091V580H245.636V562.424Z" fill="black"/>
<path d="M280.727 562.424H263.182V580H280.727V562.424Z" fill="black"/>
<path d="M298.273 562.424H280.727V580H298.273V562.424Z" fill="black"/>
<path d="M315.818 562.424H298.273V580H315.818V562.424Z" fill="black"/>
<path d="M333.364 562.424H315.818V580H333.364V562.424Z" fill="black"/>
<path d="M368.455 562.424H350.909V580H368.455V562.424Z" fill="black"/>
<path d="M421.091 562.424H403.545V580H421.091V562.424Z" fill="black"/>
<path d="M456.182 562.424H438.636V580H456.182V562.424Z" fill="black"/>
<path d="M526.364 562.424H508.818V580H526.364V562.424Z" fill="black"/>
<path d="M543.909 562.424H526.364V580H543.909V562.424Z" fill="black"/>
</svg>
